<?xml version="1.0" encoding="UTF-8"?>
<svg width="148px" height="68px" viewBox="0 0 148 68" version="1.1" xmlns="http://www.w3.org/2000/svg" xmlns:xlink="http://www.w3.org/1999/xlink">
    <!-- Generator: Sketch 52.2 (67145) - http://www.bohemiancoding.com/sketch -->
    <title>cheap-monday-seeklogo.com</title>
    <desc>Created with Sketch.</desc>
    <g id="Page-1" stroke="none" stroke-width="1" fill="none" fill-rule="evenodd">
        <g id="Artboard" transform="translate(-1101.000000, -837.000000)">
            <g id="Brands" transform="translate(50.000000, 750.000000)">
                <g id="Brand-logos" transform="translate(0.000000, 87.000000)">
                    <g id="cheap-monday-seeklogo.com" transform="translate(1051.000000, 0.000000)">
                        <path d="M14.4947368,46.1684211 C15.0315789,45.9 16.1947368,47.0631579 16.7315789,47.3315789 C17.5368421,47.6894737 18.3421053,47.7789474 19.2368421,48.0473684 C21.2052632,48.5842105 21.8315789,48.8526316 23.6210526,47.7789474 C25.6789474,46.6157895 26.9315789,45.7210526 28.1842105,43.7526316 C28.3631579,43.3947368 29.6157895,40.6210526 29.7947368,40.6210526 C30.3315789,40.3526316 30.6,41.2473684 30.5105263,41.8736842 C30.2421053,43.8421053 27.9157895,45.1842105 27.7368421,46.9736842 C27.6473684,47.9578947 28.2736842,47.6 27.4684211,48.7631579 C26.8421053,49.7473684 26.1263158,50.0157895 25.0526316,50.3736842 C22.3684211,51.3578947 20.8473684,50.3736842 18.3421053,49.4789474 C17.6263158,49.2105263 16.6421053,49.3 16.0157895,48.7631579 C15.7473684,48.4947368 14.2263158,46.2578947 14.4947368,46.1684211 C14.8526316,45.9894737 14.3157895,46.2578947 14.4947368,46.1684211 Z" id="Path" fill="#1D1D1B"></path>
                        <path d="M35.2526316,22.7263158 C35.7894737,23.1736842 36.6842105,24.3368421 37.4,24.3368421 C38.9210526,24.3368421 37.3105263,23.0842105 36.7736842,22.4578947 C35.8789474,21.3842105 35.1631579,20.5789474 33.9105263,19.9526316 C32.5684211,19.3263158 32.0315789,19.3263158 30.6,19.4157895 C29.0789474,19.5052632 28.1842105,19.2368421 26.9315789,20.2210526 C25.9473684,20.9368421 25.0526316,22.0105263 24.3368421,22.9052632 C23.3526316,24.1578947 19.6842105,26.4842105 20.1315789,28.5421053 C20.2210526,28.8105263 23.7105263,25.5 23.9789474,25.2315789 C25.1421053,24.2473684 26.0368421,22.9947368 27.2,22.1 C29.2578947,20.5789474 33.3736842,21.2052632 35.2526316,22.7263158 C35.5210526,22.9052632 34.8052632,22.3684211 35.2526316,22.7263158 Z" id="Path" fill="#1D1D1B"></path>
                        <path d="M41.5157895,37.8473684 C40.5315789,37.1315789 41.9631579,34.4473684 43.0368421,34.3578947 C44.3789474,34.2684211 45.1842105,36.5052632 44.6473684,37.5789474 C44.4684211,37.9368421 44.2,38.4736842 43.5736842,38.0263158 C43.0368421,37.5789474 43.6631579,36.9526316 43.4842105,36.4157895 C42.5894737,34.1789474 42.7684211,38.7421053 41.5157895,37.8473684 C41.2473684,37.6684211 41.8736842,38.1157895 41.5157895,37.8473684 Z" id="Path" fill="#1D1D1B"></path>
                        <path d="M47.6894737,37.3105263 C46.4368421,37.4894737 46.1684211,33.5526316 47.8684211,33.2842105 C49.0315789,33.1052632 50.7315789,36.1473684 49.5684211,36.7736842 C49.0315789,37.1315789 47.7789474,32.9263158 47.6894737,35.4315789 C47.7789474,36.0578947 48.9421053,37.1315789 47.6894737,37.3105263 C47.3315789,37.4 48.0473684,37.3105263 47.6894737,37.3105263 Z" id="Path" fill="#1D1D1B"></path>
                        <path d="M51.4473684,59.8578947 C50.9105263,59.9473684 50.8210526,63.3473684 51.7157895,63.4368421 C52.9684211,63.5263158 52.5210526,59.5894737 51.4473684,59.8578947 C51.1789474,59.9473684 51.8947368,59.7684211 51.4473684,59.8578947 Z" id="Path" fill="#1D1D1B"></path>
                        <path d="M53.5052632,59.5894737 C53.0578947,59.9473684 53.8631579,62.9 54.4894737,62.3631579 C55.1157895,61.9157895 54.0421053,59.1421053 53.5052632,59.5894737 C53.1473684,59.8578947 53.7736842,59.3210526 53.5052632,59.5894737 Z" id="Path" fill="#1D1D1B"></path>
                        <path d="M53.4157895,27.7368421 C52.7,24.0684211 47.8684211,23.9789474 46.6157895,27.3789474 C46.4368421,27.2 45.4526316,25.5894737 45.1842105,25.5894737 C44.2894737,25.5894737 45.6315789,27.4684211 45.8105263,27.7368421 C46.5263158,28.8105263 47.1526316,29.9736842 47.9578947,31.0473684 C48.4947368,31.7631579 49.3,32.3894737 49.7473684,33.0157895 C50.3736842,33.8210526 51,35.0736842 51.4473684,35.9684211 C51.8052632,36.5947368 52.1631579,39.1 53.2368421,39.1 C54.2210526,39.1 53.1473684,37.9368421 52.9684211,37.5789474 C52.7894737,37.1315789 52.6105263,36.8631579 52.7,36.3263158 C52.7894737,36.0578947 53.5052632,35.2526316 53.5052632,35.3421053 C53.1473684,34.5368421 51.9842105,35.4315789 51.4473684,34.5368421 C50.9105263,33.4631579 51.8052632,33.7315789 52.4315789,33.1947368 C54.4,31.7631579 53.8631579,29.7052632 53.4157895,27.7368421 C53.3263158,27.2 53.5052632,28.1842105 53.4157895,27.7368421 Z" id="Path" fill="#1D1D1B"></path>
                        <path d="M36.9526316,37.2210526 C36.1473684,37.8473684 35.5210526,38.2947368 34.5368421,38.4736842 C34,38.5631579 32.4789474,38.3842105 32.9263158,39.1 C33.4631579,39.9947368 35.2526316,39.5473684 35.9684211,39.1 C36.4157895,38.8315789 37.5789474,36.8631579 36.9526316,37.2210526 Z" id="Path" fill="#1D1D1B"></path>
                        <path d="M18.9684211,31.4947368 C18.8789474,31.5842105 18.9684211,31.6736842 19.0578947,31.7631579 C19.5052632,32.3894737 22.2789474,34.3578947 22.9947368,33.6421053 C24.0684211,32.5684211 19.2368421,31.0473684 18.9684211,31.4947368 Z" id="Path" fill="#1D1D1B"></path>
                        <path d="M20.8473684,34.0894737 C20.4,34.1789474 18.3421053,34.3578947 18.8789474,35.0736842 C19.2368421,35.6105263 21.1157895,35.1631579 21.6526316,35.0736842 C22.4578947,34.9842105 24.3368421,34.8052632 23.0842105,34.0894737 C22.6368421,33.9105263 21.3842105,34.1789474 20.8473684,34.0894737 Z" id="Path" fill="#1D1D1B"></path>
                        <path d="M22.8157895,35.6105263 C22.1,35.6105263 21.4736842,35.8789474 20.9368421,36.1473684 C20.4,36.4157895 17.8052632,37.8473684 19.7736842,37.9368421 C20.4,37.9368421 21.2947368,37.0421053 21.8315789,36.7736842 C22.1,36.6842105 23.9789474,35.4315789 22.8157895,35.6105263 Z" id="Path" fill="#1D1D1B"></path>
                        <path d="M32.8368421,27.4684211 C27.3789474,28.0052632 27.2,36.9526316 33.0157895,37.3105263 C35.5210526,37.4 37.8473684,34.5368421 37.7578947,32.1210526 C37.6684211,29.8842105 35.0736842,27.2894737 32.8368421,27.4684211 C31.6736842,27.5578947 33.4631579,27.3789474 32.8368421,27.4684211 Z" id="Path" fill="#747474"></path>
                        <path d="M14.4947368,46.1684211 C15.0315789,45.9 16.1947368,47.0631579 16.7315789,47.3315789 C17.5368421,47.6894737 18.3421053,47.7789474 19.2368421,48.0473684 C21.2052632,48.5842105 21.8315789,48.8526316 23.6210526,47.7789474 C25.6789474,46.6157895 26.9315789,45.7210526 28.1842105,43.7526316 C28.3631579,43.3947368 29.6157895,40.6210526 29.7947368,40.6210526 C30.3315789,40.3526316 30.6,41.2473684 30.5105263,41.8736842 C30.2421053,43.8421053 27.9157895,45.1842105 27.7368421,46.9736842 C27.6473684,47.9578947 28.2736842,47.6 27.4684211,48.7631579 C26.8421053,49.7473684 26.1263158,50.0157895 25.0526316,50.3736842 C22.3684211,51.3578947 20.8473684,50.3736842 18.3421053,49.4789474 C17.6263158,49.2105263 16.6421053,49.3 16.0157895,48.7631579 C15.7473684,48.4947368 14.2263158,46.2578947 14.4947368,46.1684211 C14.8526316,45.9894737 14.3157895,46.2578947 14.4947368,46.1684211 Z" id="Path" fill="#747474"></path>
                        <path d="M35.2526316,22.7263158 C35.7894737,23.1736842 36.6842105,24.3368421 37.4,24.3368421 C38.9210526,24.3368421 37.3105263,23.0842105 36.7736842,22.4578947 C35.8789474,21.3842105 35.1631579,20.5789474 33.9105263,19.9526316 C32.5684211,19.3263158 32.0315789,19.3263158 30.6,19.4157895 C29.0789474,19.5052632 28.1842105,19.2368421 26.9315789,20.2210526 C25.9473684,20.9368421 25.0526316,22.0105263 24.3368421,22.9052632 C23.3526316,24.1578947 19.6842105,26.4842105 20.1315789,28.5421053 C20.2210526,28.8105263 23.7105263,25.5 23.9789474,25.2315789 C25.1421053,24.2473684 26.0368421,22.9947368 27.2,22.1 C29.2578947,20.5789474 33.3736842,21.2052632 35.2526316,22.7263158 C35.5210526,22.9052632 34.8052632,22.3684211 35.2526316,22.7263158 Z" id="Path" fill="#747474"></path>
                        <path d="M41.5157895,37.8473684 C40.5315789,37.1315789 41.9631579,34.4473684 43.0368421,34.3578947 C44.3789474,34.2684211 45.1842105,36.5052632 44.6473684,37.5789474 C44.4684211,37.9368421 44.2,38.4736842 43.5736842,38.0263158 C43.0368421,37.5789474 43.6631579,36.9526316 43.4842105,36.4157895 C42.5894737,34.1789474 42.7684211,38.7421053 41.5157895,37.8473684 C41.2473684,37.6684211 41.8736842,38.1157895 41.5157895,37.8473684 Z" id="Path" fill="#747474"></path>
                        <path d="M47.6894737,37.3105263 C46.4368421,37.4894737 46.1684211,33.5526316 47.8684211,33.2842105 C49.0315789,33.1052632 50.7315789,36.1473684 49.5684211,36.7736842 C49.0315789,37.1315789 47.7789474,32.9263158 47.6894737,35.4315789 C47.7789474,36.0578947 48.9421053,37.1315789 47.6894737,37.3105263 C47.3315789,37.4 48.0473684,37.3105263 47.6894737,37.3105263 Z" id="Path" fill="#747474"></path>
                        <path d="M51.4473684,59.8578947 C50.9105263,59.9473684 50.8210526,63.3473684 51.7157895,63.4368421 C52.9684211,63.5263158 52.5210526,59.5894737 51.4473684,59.8578947 C51.1789474,59.9473684 51.8947368,59.7684211 51.4473684,59.8578947 Z" id="Path" fill="#747474"></path>
                        <path d="M53.5052632,59.5894737 C53.0578947,59.9473684 53.8631579,62.9 54.4894737,62.3631579 C55.1157895,61.9157895 54.0421053,59.1421053 53.5052632,59.5894737 C53.1473684,59.8578947 53.7736842,59.3210526 53.5052632,59.5894737 Z" id="Path" fill="#747474"></path>
                        <path d="M41.5157895,18.8789474 C41.5157895,18.6105263 41.5157895,18.5210526 41.5157895,18.8789474 Z" id="Path" fill="#000000"></path>
                        <path d="M42.5894737,23.1736842 C42.1421053,20.1315789 41.1578947,17.3578947 39.5473684,14.6736842 C39.3684211,14.3157895 38.3842105,12.7947368 37.8473684,12.8842105 C37.1315789,13.0631579 38.0263158,14.0473684 38.2052632,14.4052632 C38.6526316,15.3 39.1894737,16.1947368 39.4578947,17.0894737 C39.6368421,17.5368421 39.7263158,18.0736842 39.9052632,18.5210526 C39.9947368,18.7 40.5315789,20.1315789 40.1736842,19.1473684 C40.1736842,19.1473684 40.3526316,19.6842105 40.3526316,19.5052632 C40.6210526,20.4 40.9789474,21.2052632 41.3368421,22.0105263 C41.5157895,22.6368421 42.9473684,24.9631579 42.5894737,23.1736842 Z" id="Path" fill="#747474"></path>
                        <path d="M53.4157895,27.7368421 C52.7,24.0684211 47.8684211,23.9789474 46.6157895,27.3789474 C46.4368421,27.2 45.4526316,25.5894737 45.1842105,25.5894737 C44.2894737,25.5894737 45.6315789,27.4684211 45.8105263,27.7368421 C46.5263158,28.8105263 47.1526316,29.9736842 47.9578947,31.0473684 C48.4947368,31.7631579 49.3,32.3894737 49.7473684,33.0157895 C50.3736842,33.8210526 51,35.0736842 51.4473684,35.9684211 C51.8052632,36.5947368 52.1631579,39.1 53.2368421,39.1 C54.2210526,39.1 53.1473684,37.9368421 52.9684211,37.5789474 C52.7894737,37.1315789 52.6105263,36.8631579 52.7,36.3263158 C52.7894737,36.0578947 53.5052632,35.2526316 53.5052632,35.3421053 C53.1473684,34.5368421 51.9842105,35.4315789 51.4473684,34.5368421 C50.9105263,33.4631579 51.8052632,33.7315789 52.4315789,33.1947368 C54.4,31.7631579 53.8631579,29.7052632 53.4157895,27.7368421 C53.3263158,27.2 53.5052632,28.1842105 53.4157895,27.7368421 Z" id="Path" fill="#747474"></path>
                        <path d="M36.9526316,37.2210526 C36.1473684,37.8473684 35.5210526,38.2947368 34.5368421,38.4736842 C34,38.5631579 32.4789474,38.3842105 32.9263158,39.1 C33.4631579,39.9947368 35.2526316,39.5473684 35.9684211,39.1 C36.4157895,38.8315789 37.5789474,36.8631579 36.9526316,37.2210526 Z" id="Shape" fill="#747474" fill-rule="nonzero"></path>
                        <path d="M18.9684211,31.4947368 C18.8789474,31.5842105 18.9684211,31.6736842 19.0578947,31.7631579 C19.5052632,32.3894737 22.2789474,34.3578947 22.9947368,33.6421053 C24.0684211,32.5684211 19.2368421,31.0473684 18.9684211,31.4947368 C18.8789474,31.4947368 19.0578947,31.2263158 18.9684211,31.4947368 Z" id="Path" fill="#747474"></path>
                        <path d="M20.8473684,34.0894737 C20.4,34.1789474 18.3421053,34.3578947 18.8789474,35.0736842 C19.2368421,35.6105263 21.1157895,35.1631579 21.6526316,35.0736842 C22.4578947,34.9842105 24.3368421,34.8052632 23.0842105,34.0894737 C22.6368421,33.9105263 21.3842105,34.1789474 20.8473684,34.0894737 Z" id="Path" fill="#747474"></path>
                        <path d="M22.8157895,35.6105263 C22.1,35.6105263 21.4736842,35.8789474 20.9368421,36.1473684 C20.4,36.4157895 17.8052632,37.8473684 19.7736842,37.9368421 C20.4,37.9368421 21.2947368,37.0421053 21.8315789,36.7736842 C22.1,36.6842105 23.9789474,35.4315789 22.8157895,35.6105263 Z" id="Path" fill="#747474"></path>
                        <path d="M64.0631579,38.9210526 C63.7052632,35.1631579 61.8263158,32.8368421 59.6789474,29.8842105 C58.7842105,28.6315789 58.4263158,27.4684211 58.2473684,25.9473684 C57.8894737,23.6210526 57.0842105,22.1894737 55.8315789,20.2210526 C54.1315789,17.5368421 52.9684211,14.5842105 51.2684211,11.9 C49.3894737,8.94736842 47.5105263,6.8 44.5578947,4.83157895 C40.8894737,2.32631579 37.3105263,0.894736842 32.9263158,0.536842105 C31.1368421,0.357894737 29.3473684,0.0894736842 27.4684211,0.178947368 C24.9631579,0.357894737 23.0842105,1.52105263 20.8473684,2.77368421 C17.5368421,4.65263158 14.1368421,6.35263158 11.0947368,8.67894737 C7.78421053,11.2736842 5.27894737,14.8526316 3.13157895,18.4315789 C-0.178947368,23.9789474 0.0894736842,31.1368421 1.16315789,37.3105263 C1.7,40.2631579 2.23684211,43.0368421 3.66842105,45.6315789 C5.36842105,48.4947368 7.24736842,51.3578947 9.39473684,53.9526316 C11.3631579,56.3684211 13.6894737,57.8894737 16.3736842,59.3210526 C19.5947368,61.0210526 22.6368421,62.9894737 26.0368421,64.0631579 C28.6315789,64.8684211 31.3157895,65.3157895 33.9105263,65.9421053 C35.4315789,66.3 36.9526316,67.1052632 38.4736842,67.2842105 C40.3526316,67.4631579 42.2315789,67.6421053 44.1105263,67.7315789 C46.5263158,67.8210526 49.0315789,67.7315789 51.3578947,66.8368421 C53.3263158,66.0315789 55.4736842,65.4947368 57.3526316,64.5105263 C59.9473684,63.0789474 62.1842105,58.4263158 62.0947368,55.3842105 C62.0052632,52.6105263 59.5,49.8368421 59.7684211,47.0631579 C59.9473684,45.0947368 60.8421053,44.9157895 62.2736842,43.8421053 C63.7052632,42.5 64.2421053,40.8894737 64.0631579,38.9210526 C64.0631579,38.6526316 64.1526316,39.5473684 64.0631579,38.9210526 Z M62.4526316,38.9210526 C62.1842105,40.0842105 62.3631579,41.2473684 61.5578947,42.1421053 C60.8421053,42.8578947 59.8578947,43.2157895 59.1421053,44.0210526 C59.1421053,43.5736842 56.2789474,41.1578947 55.9210526,41.2473684 C56.4578947,41.0684211 56.9947368,44.3789474 55.7421053,45.0947368 C55.0263158,45.4526316 52.9684211,45.6315789 52.0736842,45.8105263 C49.2105263,46.3473684 46.4368421,46.7947368 43.5736842,47.4210526 C37.8473684,48.6736842 32.2105263,50.5526316 26.3947368,51.1789474 C24.9631579,51.3578947 18.6105263,52.4315789 18.7894737,54.2210526 C18.8789474,55.3842105 20.5789474,55.7421053 21.4736842,56.1 C22.8157895,56.7263158 23.9789474,57.8 25.2315789,58.3368421 C27.5578947,59.1421053 30.6,59.9473684 33.0157895,59.7684211 C35.9684211,59.5894737 38.9210526,60.0368421 41.8736842,59.7684211 C45.3631579,59.5 48.8526316,59.5 52.1631579,58.5157895 C53.0578947,58.2473684 53.9526316,58.0684211 54.8473684,57.8 C55.7421053,57.5315789 56.0105263,57.0842105 56.7263158,56.6368421 C58.0684211,55.9210526 59.5894737,56.0105263 60.2157895,54.4 C60.5736842,56.7263158 59.3210526,58.4263158 58.3368421,60.3947368 C57.8894737,61.2894737 57.7105263,62.1842105 56.7263158,62.6315789 C56.2789474,62.8105263 55.6526316,62.6315789 55.3842105,62.7210526 C54.6684211,62.8105263 54.4894737,62.9894737 53.7736842,63.3473684 C52.5210526,63.9736842 51,65.0473684 49.5684211,65.4052632 C48.6736842,65.6736842 47.7789474,65.6736842 46.7947368,65.6736842 C45.7210526,65.6736842 44.6473684,66.1210526 43.5736842,66.0315789 C41.5157895,65.9421053 39.6368421,64.5105263 37.6684211,64.2421053 C35.6105263,63.9736842 33.5526316,63.4368421 31.4947368,63.1684211 C29.7052632,62.9894737 28.2736842,62.9 26.5736842,62.1842105 C25.5894737,61.7368421 24.6052632,61.5578947 23.7105263,61.2 C22.6368421,60.7526316 21.9210526,59.9473684 21.0263158,59.3210526 C19.3263158,58.2473684 17.1789474,57.6210526 15.3894737,56.7263158 C13.1526316,55.7421053 11.4526316,53.5052632 9.93157895,51.7157895 C7.42631579,48.5842105 4.74210526,45.0947368 3.75789474,41.0684211 C2.68421053,36.6842105 2.50526316,32.2105263 2.41578947,27.6473684 C2.32631579,22.8157895 4.74210526,18.8789474 7.42631579,15.2105263 C9.03684211,12.9736842 10.4684211,11.0052632 12.7052632,9.30526316 C14.4947368,7.96315789 16.4631579,6.71052632 18.4315789,5.63684211 C19.6842105,4.92105263 21.1157895,4.47368421 22.3684211,3.75789474 C23.5315789,3.04210526 24.4263158,2.32631579 25.7684211,2.14736842 C26.2157895,2.14736842 33.3736842,3.13157895 33.2842105,3.48947368 C33.4631579,3.13157895 32.1210526,2.32631579 32.2105263,2.23684211 C33.9105263,1.52105263 36.9526316,2.95263158 38.4736842,3.48947368 C40.8,4.38421053 43.0368421,5.45789474 44.8263158,7.24736842 C45.6315789,8.05263158 46.3473684,8.94736842 47.0631579,9.75263158 C47.8684211,10.5578947 48.1368421,11.6315789 48.7631579,12.6157895 C49.3894737,13.6 50.2842105,14.3157895 51,15.3 C51.7157895,16.3736842 51.8947368,17.6263158 52.5210526,18.7 C51.3578947,18.3421053 50.3736842,17.8947368 49.1210526,18.4315789 C48.1368421,18.8789474 44.2894737,22.1894737 45.7210526,23.5315789 C45.9,23.7105263 47.7789474,20.8473684 48.2263158,20.5789474 C49.2105263,19.8631579 50.6421053,19.5052632 51.8052632,19.7736842 C53.2368421,20.1315789 55.4736842,22.3684211 56.0105263,23.7105263 C56.3684211,24.6947368 56.1,25.8578947 56.3684211,26.9315789 C56.9052632,28.5421053 57.7105263,29.7947368 58.7842105,31.1368421 C60.2157895,33.0157895 62.9,36.7736842 62.4526316,38.9210526 C62.4526316,39.3684211 62.5421053,38.5631579 62.4526316,38.9210526 Z" id="Shape" fill="#747474" fill-rule="nonzero"></path>
                        <path d="M147.810526,24.3368421 C147.810526,15.9263158 140.473684,7.69473684 133.315789,4.29473684 C126.068421,0.805263158 117.568421,-0.0894736842 109.605263,0.268421053 C105.310526,0.447368421 100.031579,1.96842105 96.1842105,3.66842105 C92.1578947,5.45789474 88.1315789,6.88947368 84.4631579,9.39473684 C80.2578947,12.2578947 77.3947368,15.8368421 74.8,20.1315789 C72.7421053,23.6210526 72.3842105,28.1842105 71.9368421,32.0315789 C71.6684211,34.0894737 71.7578947,36.1473684 72.1157895,38.2052632 C72.3842105,39.6368421 73.1894737,41.2473684 72.3842105,42.3210526 C71.7578947,43.1263158 70.1473684,44.0210526 69.3421053,44.5578947 C67.0157895,46.0789474 64.3315789,47.2421053 61.9157895,48.4947368 C64.2421053,48.4947368 66.5684211,48.4947368 68.9842105,48.4947368 C70.2368421,48.4947368 71.4,48.3157895 72.6526316,48.1368421 C73.6368421,47.9578947 74.8894737,47.5105263 75.6052632,47.9578947 C76.1421053,48.3157895 76.6789474,49.3894737 77.2157895,49.9263158 C79.6315789,52.7894737 81.8684211,54.6684211 85.2684211,56.2789474 C88.7578947,57.9789474 92.5157895,59.2315789 96.4526316,59.5894737 C100.568421,60.0368421 104.684211,59.8578947 108.8,59.7684211 C112.378947,59.7684211 115.868421,59.3210526 119.268421,58.2473684 C126.157895,56.0105263 133.315789,53.2368421 138.952632,48.4947368 C142.442105,45.6315789 143.873684,41.5157895 146.021053,37.7578947 C148.078947,33.8210526 147.810526,28.9 147.810526,24.3368421 Z" id="Path" fill="#747474"></path>
                        <path d="M78.0210526,22.3684211 C76.8578947,18.2526316 79.0052632,15.4789474 82.5842105,14.4947368 C86.2526316,13.5105263 89.3842105,14.7631579 90.5473684,18.8789474 L91.0842105,20.8473684 L86.2526316,22.1894737 L85.6263158,19.7736842 C85.4473684,19.0578947 85.0894737,17.8052632 83.6578947,18.2526316 C82.2263158,18.6105263 82.5842105,19.8631579 82.7631579,20.5789474 L85.7157895,31.0473684 C85.8947368,31.5842105 86.2526316,33.0157895 87.6842105,32.5684211 C89.1157895,32.2105263 88.6684211,30.7789474 88.5789474,30.2421053 L87.6842105,27.1105263 L92.5157895,25.7684211 L93.2315789,28.4526316 C94.3052632,32.2105263 92.5157895,35.2526316 88.6684211,36.3263158 C84.8210526,37.4 81.7789474,35.7 80.7052632,31.9421053 L78.0210526,22.3684211 Z" id="Path" fill="#FFFFFF"></path>
                        <polygon id="Path" fill="#FFFFFF" points="91.3526316 13.4210526 95.1105263 12.7052632 96.2736842 18.8789474 98.4210526 18.4315789 97.2578947 12.2578947 101.015789 11.5421053 104.147368 27.9157895 100.389474 28.6315789 99.0473684 21.6526316 96.9 22.1 98.2421053 29.0789474 94.4842105 29.7947368"></polygon>
                        <polygon id="Path" fill="#FFFFFF" points="102.626316 13.5105263 112.021053 11.2736842 112.915789 14.7631579 107.726316 16.0157895 108.621053 19.6842105 113.184211 18.6105263 114.078947 22.1 109.515789 23.1736842 110.5 27.2894737 115.868421 25.9473684 116.763158 29.4368421 107.189474 31.7631579"></polygon>
                        <path d="M119.536842,18.4315789 L117.926316,18.7 L117.478947,11.5421053 L119.536842,18.4315789 Z M121.147368,23.3526316 L124.547368,22.7263158 L119.178947,8.94736842 L114.794737,9.75263158 L114.884211,24.5157895 L118.194737,23.8894737 L118.015789,21.2947368 L120.342105,20.8473684 L121.147368,23.3526316 Z" id="Shape" fill="#FFFFFF" fill-rule="nonzero"></path>
                        <path d="M129.647368,16.1052632 L128.931579,10.6473684 L130.184211,10.4684211 C131.526316,10.2894737 132.152632,11.0052632 132.421053,12.9736842 C132.689474,14.9421053 132.242105,15.7473684 130.9,15.9263158 L129.647368,16.1052632 Z M126.336842,29.4368421 L131.347368,28.7210526 L130.094737,19.9526316 L132.778947,19.5947368 C137.342105,18.9684211 137.878947,15.4789474 137.431579,12.1684211 C136.626316,6.44210526 134.210526,5.81578947 128.663158,6.62105263 L123.205263,7.33684211 L126.336842,29.4368421 Z" id="Shape" fill="#FFFFFF" fill-rule="nonzero"></path>
                        <polygon id="Path" fill="#FFFFFF" points="80.4368421 38.3842105 85.6263158 37.7578947 87.5947368 45.0052632 87.5947368 45.0052632 87.7736842 37.4894737 93.0526316 36.8631579 94.8421053 51.7157895 91.5315789 52.1631579 90.1 40.6210526 90.1 40.6210526 89.4736842 52.4315789 87.2368421 52.7 84.0157895 41.4263158 84.0157895 41.4263158 85.4473684 52.9684211 82.1368421 53.4157895"></polygon>
                        <path d="M101.910526,42.6789474 C102,43.1263158 102.268421,44.2 101.194737,44.4684211 C100.031579,44.7368421 99.8526316,43.6631579 99.6736842,43.2157895 L97.7052632,34.8052632 C97.5263158,34.2684211 97.3473684,33.2842105 98.4210526,33.0157895 C99.5842105,32.7473684 99.7631579,33.7315789 99.9421053,34.2684211 L101.910526,42.6789474 Z M95.7368421,43.7526316 C96.4526316,46.7947368 98.7789474,48.2263158 101.910526,47.4210526 C105.042105,46.7052632 106.473684,44.3789474 105.757895,41.3368421 L103.968421,33.6421053 C103.163158,30.3315789 100.657895,29.2578947 97.7947368,29.9736842 C94.9315789,30.6894737 93.1421053,32.7473684 93.9473684,36.0578947 L95.7368421,43.7526316 Z" id="Shape" fill="#FFFFFF" fill-rule="nonzero"></path>
                        <polygon id="Path" fill="#FFFFFF" points="105.131579 33.5526316 109.336842 32.8368421 114.168421 42.0526316 114.168421 42.0526316 112.468421 32.3 116.136842 31.6736842 119.089474 48.2263158 114.973684 48.9421053 110.052632 39.1894737 110.052632 39.1894737 111.842105 49.4789474 108.173684 50.1052632"></polygon>
                        <path d="M120.431579,28.6315789 L120.878947,28.5421053 C121.684211,28.4526316 122.221053,28.8105263 122.221053,29.5263158 L122.847368,35.9684211 C122.936842,36.7736842 122.489474,37.1315789 121.684211,37.2210526 L121.236842,37.3105263 L120.431579,28.6315789 Z M118.373684,39.9052632 L122.936842,39.4578947 C124.547368,39.2789474 126.157895,38.2052632 125.889474,35.7894737 L125.263158,29.5263158 C125.084211,27.4684211 124.189474,26.0368421 121.594737,26.3052632 L117.031579,26.7526316 L118.373684,39.9052632 Z" id="Shape" fill="#FFFFFF" fill-rule="nonzero"></path>
                        <path d="M131.705263,41.4263158 L129.826316,41.6052632 L130.005263,33.3736842 L131.705263,41.4263158 Z M132.957895,47.2421053 L136.984211,46.8842105 L132.331579,30.6 L127.231579,31.0473684 L125.710526,47.8684211 L129.557895,47.5105263 L129.647368,44.5578947 L132.331579,44.2894737 L132.957895,47.2421053 Z" id="Shape" fill="#FFFFFF" fill-rule="nonzero"></path>
                        <polygon id="Path" fill="#FFFFFF" points="131.436842 23.1736842 135.373684 22.9052632 136.894737 28.4526316 136.894737 28.4526316 137.610526 22.7263158 141.457895 22.4578947 139.042105 32.4789474 139.578947 39.2789474 135.731579 39.5473684 135.194737 33.0157895"></polygon>
                        <path d="M137.878947,40.7105263 C138.505263,40.7105263 138.952632,41.1578947 138.952632,41.8736842 C138.952632,42.5 138.505263,42.9473684 137.878947,42.9473684 C137.252632,42.9473684 136.805263,42.4105263 136.805263,41.8736842 C136.805263,41.2473684 137.252632,40.7105263 137.878947,40.7105263 Z M137.878947,40.5315789 C137.163158,40.5315789 136.536842,41.0684211 136.536842,41.8736842 C136.536842,42.5894737 137.073684,43.2157895 137.878947,43.2157895 C138.594737,43.2157895 139.221053,42.6789474 139.221053,41.8736842 C139.221053,41.0684211 138.684211,40.5315789 137.878947,40.5315789 Z M137.610526,41.9631579 L137.878947,41.9631579 L138.326316,42.5894737 L138.505263,42.5894737 L138.057895,41.9631579 C138.236842,41.9631579 138.415789,41.7842105 138.415789,41.5157895 C138.415789,41.2473684 138.236842,41.0684211 137.968421,41.0684211 L137.431579,41.0684211 L137.431579,42.5894737 L137.610526,42.5894737 L137.610526,41.9631579 Z M137.610526,41.7842105 L137.610526,41.2473684 L137.968421,41.2473684 C138.147368,41.2473684 138.326316,41.3368421 138.326316,41.5157895 C138.326316,41.7842105 138.057895,41.7842105 137.878947,41.7842105 L137.610526,41.7842105 Z" id="Shape" fill="#FFFFFF" fill-rule="nonzero"></path>
                        <path d="M24.0684211,53.5947368 C23.8,53.6842105 22.6368421,53.5947368 22.5473684,53.9526316 C22.5473684,53.9526316 24.1578947,54.5789474 24.2473684,54.4894737 C24.5157895,54.3105263 24.6052632,53.4157895 24.0684211,53.5947368 C23.7105263,53.7736842 24.5157895,53.4157895 24.0684211,53.5947368 Z" id="Path" fill="#FFFFFF"></path>
                        <path d="M23.1736842,55.0263158 C22.9052632,55.0263158 22.7263158,55.0263158 22.5473684,55.1157895 C22.5473684,55.1157895 24.0684211,56.0105263 24.2473684,55.9210526 C25.2315789,55.3842105 23.4421053,55.0263158 23.1736842,55.0263158 C22.8157895,55.0263158 23.4421053,55.0263158 23.1736842,55.0263158 Z" id="Path" fill="#FFFFFF"></path>
                        <path d="M25.4105263,53.4157895 C24.1578947,54.5789474 26.3052632,55.2052632 27.1105263,54.7578947 C28.9,53.7736842 26.7526316,52.1631579 25.4105263,53.4157895 C25.1421053,53.5947368 25.7684211,53.0578947 25.4105263,53.4157895 Z" id="Path" fill="#FFFFFF"></path>
                        <path d="M31.4052632,53.9526316 C31.4947368,55.2947368 28.4526316,55.2052632 28.3631579,53.8631579 C28.2736842,52.9684211 28.8105263,52.7 29.5263158,52.4315789 C30.9578947,51.8052632 31.3157895,52.3421053 31.4052632,53.9526316 C31.4052632,54.3105263 31.3157895,53.5052632 31.4052632,53.9526316 Z" id="Path" fill="#FFFFFF"></path>
                        <path d="M33.2842105,54.7578947 C31.1368421,54.8473684 32.0315789,50.4631579 34.6263158,51 C35.7,51.1789474 35.4315789,51.8947368 35.4315789,52.8789474 C35.3421053,54.5789474 34.8947368,54.6684211 33.2842105,54.7578947 C32.8368421,54.7578947 33.6421053,54.6684211 33.2842105,54.7578947 Z" id="Path" fill="#FFFFFF"></path>
                        <path d="M37.0421053,54.4894737 C36.2368421,54.3105263 35.8789474,51.8052632 36.1473684,51.0894737 C36.4157895,50.5526316 38.6526316,49.5684211 39.3684211,50.0157895 C39.9947368,50.3736842 40.1736842,53.1473684 39.9947368,53.5947368 C39.5473684,54.4 37.9368421,54.6684211 37.0421053,54.4894737 C36.6842105,54.4 37.4,54.5789474 37.0421053,54.4894737 Z" id="Path" fill="#FFFFFF"></path>
                        <path d="M40.6210526,50.9105263 C40.6210526,49.2105263 41.6947368,49.2105263 43.1263158,49.0315789 C44.9157895,48.8526316 44.8263158,49.9263158 44.7368421,51.6263158 C44.6473684,53.5052632 44.0210526,53.6842105 42.1421053,53.6842105 C40.9789474,53.6842105 41.2473684,54.0421053 40.7105263,52.8789474 C40.6210526,52.6105263 40.6210526,51.3578947 40.6210526,50.9105263 Z" id="Path" fill="#FFFFFF"></path>
                        <path d="M45.9,48.3157895 C44.9157895,48.7631579 45.5421053,50.8210526 45.5421053,51.7157895 C45.6315789,52.4315789 45.4526316,52.7894737 46.0789474,53.1473684 C46.3473684,53.3263158 48.1368421,53.1473684 48.4052632,53.0578947 C49.9263158,52.5210526 49.1210526,51.0894737 48.8526316,49.8368421 C48.5842105,47.9578947 47.7789474,47.6 45.9,48.3157895 C45.6315789,48.4947368 46.1684211,48.2263158 45.9,48.3157895 Z" id="Path" fill="#FFFFFF"></path>
                        <path d="M49.8368421,47.7789474 C49.3894737,48.0473684 49.6578947,51.8052632 50.0157895,52.2526316 C50.5526316,52.8789474 52.2526316,52.5210526 52.8789474,51.8947368 C53.5947368,51.1789474 53.4157895,49.4789474 52.9684211,48.4947368 C52.5210526,47.4210526 51.0894737,47.1526316 49.8368421,47.7789474 C49.6578947,47.9578947 50.2842105,47.6 49.8368421,47.7789474 Z" id="Path" fill="#FFFFFF"></path>
                        <path d="M55.3842105,47.4210526 C54.9368421,46.6157895 54.0421053,46.7052632 53.5947368,47.6 C53.4157895,48.0473684 53.9526316,50.8210526 54.2210526,51.0894737 C54.7578947,51.5368421 55.8315789,51.4473684 56.1,50.7315789 C56.2789474,50.2842105 55.5631579,47.7789474 55.3842105,47.4210526 Z" id="Path" fill="#FFFFFF"></path>
                        <path d="M56.9052632,46.6157895 C55.5631579,46.5263158 55.9210526,47.4210526 56.1,48.2263158 C56.1894737,48.6736842 56.2789474,50.3736842 56.7263158,50.5526316 C58.3368421,51.2684211 57.8,46.6157895 56.9052632,46.6157895 C56.7263158,46.5263158 57.0842105,46.6157895 56.9052632,46.6157895 Z" id="Path" fill="#FFFFFF"></path>
                        <path d="M57.8,46.5263158 C56.9947368,46.4368421 58.2473684,49.2105263 58.0684211,49.3894737 C58.4263158,49.0315789 58.4263158,46.5263158 57.8,46.5263158 C57.6210526,46.4368421 57.9789474,46.5263158 57.8,46.5263158 Z" id="Path" fill="#FFFFFF"></path>
                        <path d="M26.3947368,55.2052632 C25.3210526,55.4736842 24.6052632,55.9210526 26.0368421,56.5473684 C27.9157895,57.4421053 28.2736842,54.8473684 26.3947368,55.2052632 C26.0368421,55.2947368 26.6631579,55.2052632 26.3947368,55.2052632 Z" id="Path" fill="#FFFFFF"></path>
                        <path d="M28.6315789,55.3842105 C28.0947368,55.4736842 28.2736842,56.6368421 28.4526316,56.9947368 C28.8105263,57.4421053 29.8842105,57.7105263 30.4210526,57.6210526 C31.1368421,57.5315789 31.8526316,56.9947368 31.1368421,55.9210526 C30.8684211,55.3842105 29.4368421,55.2947368 28.6315789,55.3842105 C28.4526316,55.4736842 28.9894737,55.3842105 28.6315789,55.3842105 Z" id="Path" fill="#FFFFFF"></path>
                        <path d="M32.9263158,55.6526316 C32.3894737,55.7421053 31.9421053,56.9052632 32.3,57.4421053 C32.5684211,57.8894737 34.7157895,58.3368421 35.2526316,58.1578947 C35.9684211,57.9789474 36.5052632,56.7263158 35.7894737,55.8315789 C35.2526316,55.1157895 33.8210526,55.3842105 32.9263158,55.6526316 C32.6578947,55.6526316 33.1947368,55.5631579 32.9263158,55.6526316 Z" id="Path" fill="#FFFFFF"></path>
                        <path d="M36.9526316,55.2052632 C36.5052632,55.4736842 36.3263158,57.6210526 36.7736842,58.0684211 C37.1315789,58.4263158 39.7263158,58.2473684 40.0842105,58.0684211 C40.7105263,57.7105263 40.8,56.2789474 40.2631579,55.4736842 C39.8157895,54.7578947 37.9368421,54.8473684 36.9526316,55.2052632 C36.6842105,55.3842105 37.4,55.0263158 36.9526316,55.2052632 Z" id="Path" fill="#FFFFFF"></path>
                        <path d="M41.6052632,54.9368421 C40.8894737,55.1157895 41.3368421,57.6210526 41.7842105,57.9789474 C41.9631579,58.1578947 44.6473684,58.0684211 45.0052632,57.8894737 C45.8105263,57.5315789 45.8105263,55.7421053 45.0947368,55.1157895 C44.5578947,54.4894737 42.5,54.6684211 41.6052632,54.9368421 C41.2473684,55.0263158 42.1421053,54.7578947 41.6052632,54.9368421 Z" id="Path" fill="#FFFFFF"></path>
                        <path d="M46.2578947,54.6684211 C45.5421053,54.9368421 45.8105263,56.9947368 46.2578947,57.4421053 C46.6157895,57.8 49.8368421,57.7105263 50.1947368,57.2631579 C50.6421053,56.7263158 50.1947368,54.8473684 49.6578947,54.4894737 C49.1210526,54.1315789 46.8842105,54.4 46.2578947,54.6684211 C45.9,54.7578947 46.6157895,54.5789474 46.2578947,54.6684211 Z" id="Path" fill="#FFFFFF"></path>
                        <path d="M51.0894737,53.8631579 C50.5526316,54.2210526 50.9105263,56.3684211 51.3578947,56.7263158 C51.6263158,56.9947368 54.1315789,56.7263158 54.4894737,56.1894737 C54.7578947,55.7421053 54.3105263,53.8631579 53.9526316,53.5052632 C53.3263158,53.0578947 51.7157895,53.3263158 51.0894737,53.8631579 C50.8210526,54.0421053 51.4473684,53.5947368 51.0894737,53.8631579 Z" id="Path" fill="#FFFFFF"></path>
                        <path d="M55.2947368,52.7894737 C53.7736842,53.1473684 54.7578947,55.5631579 55.9210526,55.5631579 C57.0842105,55.5631579 57.2631579,54.9368421 57.1736842,54.2210526 C57.1736842,52.9684211 56.3684211,52.6105263 55.2947368,52.7894737 Z" id="Path" fill="#FFFFFF"></path>
                        <path d="M57.1736842,52.6105263 C56.9052632,51.2684211 58.7842105,51.5368421 58.7842105,53.0578947 C58.7842105,53.5052632 58.5157895,54.6684211 57.7105263,54.4 C57.4421053,54.3105263 57.2631579,52.9684211 57.1736842,52.6105263 C57.1736842,52.3421053 57.2631579,52.8789474 57.1736842,52.6105263 Z" id="Path" fill="#FFFFFF"></path>
                        <path d="M58.6052632,50.4631579 C58.2473684,50.8210526 58.7842105,52.7 59.3210526,52.7894737 C59.8578947,52.9684211 58.8736842,50.1052632 58.6052632,50.4631579 C58.4263158,50.6421053 58.7842105,50.1947368 58.6052632,50.4631579 Z" id="Path" fill="#FFFFFF"></path>
                    </g>
                </g>
            </g>
        </g>
    </g>
</svg>