<?xml version="1.0" encoding="UTF-8"?>
<svg width="162px" height="55px" viewBox="0 0 162 55" version="1.1" xmlns="http://www.w3.org/2000/svg" xmlns:xlink="http://www.w3.org/1999/xlink">
    <!-- Generator: Sketch 52.2 (67145) - http://www.bohemiancoding.com/sketch -->
    <title>Logo</title>
    <desc>Created with Sketch.</desc>
    <g id="Logo" stroke="none" stroke-width="1" fill="none" fill-rule="evenodd">
        <rect id="Rectangle" stroke="#FF652F" stroke-width="2" fill-rule="nonzero" x="1" y="1" width="160" height="53"></rect>
        <path d="M18.6113281,23.3168945 C18.6113281,24.5229552 18.1752973,25.4692348 17.3032227,26.1557617 C16.431148,26.8422886 15.2281978,27.1855469 13.6943359,27.1855469 C12.1604741,27.1855469 10.9049528,26.9474308 9.92773438,26.4711914 L9.92773438,24.3745117 C10.5462271,24.6652033 11.2033657,24.8940421 11.8991699,25.0610352 C12.5949742,25.2280282 13.2428355,25.3115234 13.8427734,25.3115234 C14.721033,25.3115234 15.3688944,25.1445329 15.786377,24.8105469 C16.2038595,24.4765608 16.4125977,24.0281604 16.4125977,23.465332 C16.4125977,22.958168 16.2208678,22.5283221 15.8374023,22.1757812 C15.4539369,21.8232404 14.6622781,21.4057641 13.4624023,20.9233398 C12.225417,20.4223608 11.3533554,19.8502636 10.8461914,19.2070312 C10.3390274,18.5637989 10.0854492,17.7906946 10.0854492,16.8876953 C10.0854492,15.7558537 10.4874634,14.8652376 11.2915039,14.2158203 C12.0955444,13.566403 13.1747979,13.2416992 14.5292969,13.2416992 C15.8281315,13.2416992 17.1207618,13.5262016 18.4072266,14.0952148 L17.7021484,15.9042969 C16.4960877,15.3971329 15.4199266,15.1435547 14.4736328,15.1435547 C13.7561813,15.1435547 13.2119159,15.2997217 12.8408203,15.6120605 C12.4697247,15.9243993 12.2841797,16.337237 12.2841797,16.8505859 C12.2841797,17.2031268 12.3583977,17.5046374 12.5068359,17.755127 C12.6552742,18.0056165 12.8995751,18.2421864 13.2397461,18.4648438 C13.5799171,18.6875011 14.1922156,18.9812807 15.0766602,19.3461914 C16.0724334,19.7605815 16.8022438,20.1471336 17.2661133,20.5058594 C17.7299828,20.8645851 18.0701487,21.2696918 18.2866211,21.7211914 C18.5030935,22.1726911 18.6113281,22.7045868 18.6113281,23.3168945 Z M27.541875,27 L25.3245898,27 L25.3245898,15.3383789 L21.335332,15.3383789 L21.335332,13.4365234 L31.5311328,13.4365234 L31.5311328,15.3383789 L27.541875,15.3383789 L27.541875,27 Z M37.446543,19.7451172 L38.986582,19.7451172 C40.0194648,19.7451172 40.7678297,19.5533873 41.2316992,19.1699219 C41.6955687,18.7864564 41.9275,18.2174517 41.9275,17.4628906 C41.9275,16.6959597 41.6770142,16.1455095 41.1760352,15.8115234 C40.6750561,15.4775374 39.9205064,15.3105469 38.9123633,15.3105469 L37.446543,15.3105469 L37.446543,19.7451172 Z M37.446543,21.5820312 L37.446543,27 L35.2292578,27 L35.2292578,13.4365234 L39.0608008,13.4365234 C40.8111351,13.4365234 42.1068578,13.7643196 42.9480078,14.4199219 C43.7891579,15.0755241 44.2097266,16.0650975 44.2097266,17.3886719 C44.2097266,19.0771569 43.3314801,20.2801071 41.5749609,20.9975586 L45.4065039,27 L42.8830664,27 L39.6359961,21.5820312 L37.446543,21.5820312 Z M56.6656641,27 L48.9933008,27 L48.9933008,13.4365234 L56.6656641,13.4365234 L56.6656641,15.3105469 L51.210586,15.3105469 L51.210586,19.0029297 L56.3224024,19.0029297 L56.3224024,20.8583984 L51.210586,20.8583984 L51.210586,25.1166992 L56.6656641,25.1166992 L56.6656641,27 Z M68.889668,27 L61.2173047,27 L61.2173047,13.4365234 L68.889668,13.4365234 L68.889668,15.3105469 L63.4345899,15.3105469 L63.4345899,19.0029297 L68.5464063,19.0029297 L68.5464063,20.8583984 L63.4345899,20.8583984 L63.4345899,25.1166992 L68.889668,25.1166992 L68.889668,27 Z M78.1263672,27 L75.9090821,27 L75.9090821,15.3383789 L71.9198242,15.3383789 L71.9198242,13.4365234 L82.115625,13.4365234 L82.115625,15.3383789 L78.1263672,15.3383789 L78.1263672,27 Z M100.190098,23.3168945 C100.190098,24.5229552 99.7540669,25.4692348 98.8819922,26.1557617 C98.0099175,26.8422886 96.8069673,27.1855469 95.2731055,27.1855469 C93.7392437,27.1855469 92.4837224,26.9474308 91.5065039,26.4711914 L91.5065039,24.3745117 C92.1249966,24.6652033 92.7821352,24.8940421 93.4779395,25.0610352 C94.1737437,25.2280282 94.8216051,25.3115234 95.421543,25.3115234 C96.2998026,25.3115234 96.947664,25.1445329 97.3651465,24.8105469 C97.7826291,24.4765608 97.9913672,24.0281604 97.9913672,23.465332 C97.9913672,22.958168 97.7996374,22.5283221 97.4161719,22.1757812 C97.0327064,21.8232404 96.2410477,21.4057641 95.0411719,20.9233398 C93.8041866,20.4223608 92.932125,19.8502636 92.424961,19.2070312 C91.917797,18.5637989 91.6642188,17.7906946 91.6642188,16.8876953 C91.6642188,15.7558537 92.066233,14.8652376 92.8702735,14.2158203 C93.6743139,13.566403 94.7535675,13.2416992 96.1080664,13.2416992 C97.4069011,13.2416992 98.6995314,13.5262016 99.9859961,14.0952148 L99.280918,15.9042969 C98.0748573,15.3971329 96.9986962,15.1435547 96.0524024,15.1435547 C95.3349509,15.1435547 94.7906855,15.2997217 94.4195899,15.6120605 C94.0484943,15.9243993 93.8629493,16.337237 93.8629493,16.8505859 C93.8629493,17.2031268 93.9371673,17.5046374 94.0856055,17.755127 C94.2340437,18.0056165 94.4783447,18.2421864 94.8185157,18.4648438 C95.1586866,18.6875011 95.7709852,18.9812807 96.6554297,19.3461914 C97.6512029,19.7605815 98.3810133,20.1471336 98.8448828,20.5058594 C99.3087524,20.8645851 99.6489182,21.2696918 99.8653907,21.7211914 C100.081863,22.1726911 100.190098,22.7045868 100.190098,23.3168945 Z M109.120645,27 L106.903359,27 L106.903359,15.3383789 L102.914102,15.3383789 L102.914102,13.4365234 L113.109902,13.4365234 L113.109902,15.3383789 L109.120645,15.3383789 L109.120645,27 Z M120.63957,19.6245117 L123.849531,13.4365234 L126.261641,13.4365234 L121.743574,21.7397461 L121.743574,27 L119.517012,27 L119.517012,21.8139648 L115.0175,13.4365234 L117.429609,13.4365234 L120.63957,19.6245117 Z M129.672168,27 L129.672168,13.4365234 L131.889453,13.4365234 L131.889453,25.0981445 L137.632129,25.0981445 L137.632129,27 L129.672168,27 Z M149.262383,27 L141.59002,27 L141.59002,13.4365234 L149.262383,13.4365234 L149.262383,15.3105469 L143.807305,15.3105469 L143.807305,19.0029297 L148.919121,19.0029297 L148.919121,20.8583984 L143.807305,20.8583984 L143.807305,25.1166992 L149.262383,25.1166992 L149.262383,27 Z" id="Street-Style" fill="#FF652F"></path>
        <path d="M16.9331055,45 L16.0307617,45 L14.4462891,39.7416992 C14.3710934,39.5089507 14.2869471,39.2153338 14.1938477,38.8608398 C14.1007482,38.5063459 14.0524089,38.2932946 14.0488281,38.2216797 C13.9700517,38.6943383 13.8447274,39.2117485 13.6728516,39.7739258 L12.1367188,45 L11.234375,45 L9.14501953,37.1474609 L10.1118164,37.1474609 L11.3525391,41.9975586 C11.5244149,42.6779005 11.6497392,43.2937798 11.7285156,43.8452148 C11.8251958,43.1899381 11.9684235,42.548994 12.1582031,41.9223633 L13.5654297,37.1474609 L14.5322266,37.1474609 L16.0092773,41.965332 C16.1811532,42.5203478 16.3261713,43.1469692 16.4443359,43.8452148 C16.5123701,43.3367488 16.6412751,42.7172888 16.8310547,41.9868164 L18.0664062,37.1474609 L19.0332031,37.1474609 L16.9331055,45 Z M27.6627297,45 L23.2852883,45 L23.2852883,37.1474609 L27.6627297,37.1474609 L27.6627297,37.9584961 L24.1983743,37.9584961 L24.1983743,40.4882812 L27.4532571,40.4882812 L27.4532571,41.2939453 L24.1983743,41.2939453 L24.1983743,44.1835938 L27.6627297,44.1835938 L27.6627297,45 Z M37.361104,45 L36.3835649,42.5024414 L33.236104,42.5024414 L32.2693071,45 L31.345479,45 L34.4499712,37.1152344 L35.2180376,37.1152344 L38.3064165,45 L37.361104,45 Z M36.098897,41.6806641 L35.185811,39.2475586 C35.0676464,38.9396143 34.9459028,38.5618512 34.8205767,38.1142578 C34.7418002,38.4580095 34.6290084,38.8357727 34.4821978,39.2475586 L33.5583696,41.6806641 L36.098897,41.6806641 Z M43.321197,41.734375 L43.321197,45 L42.4081111,45 L42.4081111,37.1474609 L44.5619197,37.1474609 C45.5251407,37.1474609 46.2368035,37.3318666 46.6969295,37.7006836 C47.1570555,38.0695005 47.387115,38.624508 47.387115,39.3657227 C47.387115,40.4041393 46.8607531,41.1059552 45.8080134,41.4711914 L47.9403377,45 L46.8607478,45 L44.9593806,41.734375 L43.321197,41.734375 Z M43.321197,40.9501953 L44.5726619,40.9501953 C45.2171963,40.9501953 45.6898479,40.8221855 45.9906306,40.5661621 C46.2914134,40.3101387 46.4418025,39.9261093 46.4418025,39.4140625 C46.4418025,38.8948542 46.2887279,38.5206717 45.982574,38.2915039 C45.6764201,38.0623361 45.1849699,37.9477539 44.5082088,37.9477539 L43.321197,37.9477539 L43.321197,40.9501953 Z M56.6611729,42.9106445 C56.6611729,43.6017287 56.4105243,44.1406231 55.9092197,44.5273438 C55.4079152,44.9140644 54.7275834,45.1074219 53.8682041,45.1074219 C52.9372099,45.1074219 52.2210712,44.9874686 51.7197666,44.7475586 L51.7197666,43.8666992 C52.0420339,44.0027676 52.3929418,44.1101884 52.772501,44.1889648 C53.1520602,44.2677413 53.528033,44.3071289 53.9004307,44.3071289 C54.5091577,44.3071289 54.9674864,44.1916515 55.2754307,43.9606934 C55.5833749,43.7297352 55.7373447,43.4083679 55.7373447,42.996582 C55.7373447,42.7244453 55.6827392,42.5015471 55.5735264,42.3278809 C55.4643136,42.1542146 55.2816982,41.9939786 55.0256748,41.847168 C54.7696514,41.7003573 54.380251,41.5338551 53.8574619,41.3476562 C53.1269895,41.0862617 52.6051035,40.7765317 52.2917881,40.418457 C51.9784727,40.0603823 51.8218174,39.5931018 51.8218174,39.0166016 C51.8218174,38.4114553 52.0491914,37.9298521 52.5039463,37.5717773 C52.9587012,37.2137026 53.5602577,37.034668 54.3086338,37.034668 C55.0892367,37.034668 55.8071657,37.1778957 56.4624424,37.4643555 L56.1777744,38.2592773 C55.5296592,37.9871406 54.8994572,37.8510742 54.2871494,37.8510742 C53.8037486,37.8510742 53.4259854,37.9549143 53.1538486,38.1625977 C52.8817119,38.370281 52.7456455,38.6585268 52.7456455,39.0273438 C52.7456455,39.2994805 52.7957752,39.5223787 52.8960361,39.6960449 C52.9962971,39.8697112 53.1654848,40.029052 53.4036045,40.1740723 C53.6417242,40.3190925 54.0060597,40.4793285 54.4966221,40.6547852 C55.3201939,40.9484064 55.8868386,41.2635074 56.1965733,41.6000977 C56.5063079,41.9366879 56.6611729,42.3735325 56.6611729,42.9106445 Z M67.2511487,45 L66.3380628,45 L66.3380628,41.3046875 L62.2023206,41.3046875 L62.2023206,45 L61.2892346,45 L61.2892346,37.1474609 L62.2023206,37.1474609 L62.2023206,40.4882812 L66.3380628,40.4882812 L66.3380628,37.1474609 L67.2511487,37.1474609 L67.2511487,45 Z M79.24298,41.0629883 C79.24298,42.3198305 78.9251935,43.3081019 78.2896109,44.027832 C77.6540283,44.7475622 76.7704922,45.1074219 75.6389761,45.1074219 C74.4823948,45.1074219 73.589907,44.7538284 72.9614859,44.0466309 C72.3330648,43.3394333 72.0188589,42.341315 72.0188589,41.0522461 C72.0188589,39.7739194 72.3339599,38.7829625 72.9641714,38.0793457 C73.5943829,37.3757289 74.4895562,37.0239258 75.6497183,37.0239258 C76.7776536,37.0239258 77.6585042,37.3819951 78.2922964,38.0981445 C78.9260886,38.8142939 79.24298,39.8025653 79.24298,41.0629883 Z M72.9856558,41.0629883 C72.9856558,42.1264702 73.2121346,42.9330213 73.6650991,43.482666 C74.1180636,44.0323107 74.7760161,44.3071289 75.6389761,44.3071289 C76.5090976,44.3071289 77.1661549,44.0332059 77.6101675,43.4853516 C78.0541801,42.9374973 78.2761831,42.1300509 78.2761831,41.0629883 C78.2761831,40.0066679 78.0550753,39.2054878 77.6128531,38.6594238 C77.1706308,38.1133599 76.5162591,37.840332 75.6497183,37.840332 C74.7795967,37.840332 74.1180636,38.1151502 73.6650991,38.6647949 C73.2121346,39.2144396 72.9856558,40.0138294 72.9856558,41.0629883 Z M88.9950652,39.4355469 C88.9950652,40.2304727 88.7238277,40.8418761 88.1813445,41.2697754 C87.6388613,41.6976747 86.862746,41.9116211 85.8529754,41.9116211 L84.9291472,41.9116211 L84.9291472,45 L84.0160613,45 L84.0160613,37.1474609 L86.0517058,37.1474609 C88.0139552,37.1474609 88.9950652,37.9101486 88.9950652,39.4355469 Z M84.9291472,41.1274414 L85.7509246,41.1274414 C86.5601734,41.1274414 87.1456168,40.9967461 87.5072722,40.7353516 C87.8689277,40.473957 88.0497527,40.0550159 88.0497527,39.4785156 C88.0497527,38.9593073 87.8796698,38.5725924 87.5394988,38.3183594 C87.1993278,38.0641263 86.6693852,37.9370117 85.9496551,37.9370117 L84.9291472,37.9370117 L84.9291472,41.1274414 Z" id="wearshop" fill="#FF652F"></path>
    </g>
</svg>