<?xml version="1.0" encoding="UTF-8"?>
<svg width="55px" height="68px" viewBox="0 0 55 68" version="1.1" xmlns="http://www.w3.org/2000/svg" xmlns:xlink="http://www.w3.org/1999/xlink">
    <!-- Generator: Sketch 52.2 (67145) - http://www.bohemiancoding.com/sketch -->
    <title>obey_the_giant</title>
    <desc>Created with Sketch.</desc>
    <g id="Page-1" stroke="none" stroke-width="1" fill="none" fill-rule="evenodd">
        <g id="Artboard" transform="translate(-351.000000, -837.000000)" fill="#747474">
            <g id="Brands" transform="translate(50.000000, 750.000000)">
                <g id="Brand-logos" transform="translate(0.000000, 87.000000)">
                    <g id="obey_the_giant" transform="translate(300.842027, 0.000000)">
                        <path d="M3.26284091,64.6255 L50.6035909,64.6255 L50.6035909,2.81968182 L3.26284091,2.81968182 L3.26284091,64.6255 Z M0.274318182,67.9725682 L54.3095909,67.9725682 L54.3095909,0.0699318182 L0.274318182,0.0699318182 L0.274318182,67.9725682 Z" id="Fill-2"></path>
                        <path d="M15.4568636,34.6189545 C16.1739545,35.0972727 17.4891364,36.6512273 17.1305909,37.72725 C16.7716591,38.8032727 13.4245909,40.8355455 12.7071136,41.0747045 C11.9900227,41.3138636 11.6314773,41.7917955 11.3923182,41.3138636 C11.1531591,40.8355455 13.1854318,37.8466364 13.9025227,36.6512273 C14.62,35.4558182 15.4568636,34.6189545 15.4568636,34.6189545 Z M26.8136364,41.3084545 C26.8136364,41.3084545 27.4511364,41.4730455 28.0886364,40.9947273 C28.7265227,40.5164091 30.0019091,40.1180682 31.2769091,40.5963864 C32.5519091,41.0747045 33.4289545,41.7921818 34.3852045,42.1105455 C34.9415682,42.296 38.9392727,42.7256364 38.2901818,44.0242045 C37.9702727,44.6613182 33.6669545,47.1313409 32.1531818,47.68925 C30.6390227,48.2471591 29.8423409,48.2471591 29.3644091,48.7254773 C28.8860909,49.2037955 28.4873636,49.7613182 28.4077727,50.0800682 C28.3274091,50.3992045 26.8136364,50.4737727 26.8136364,50.4737727 C26.8136364,50.4737727 25.2994773,50.3992045 25.2198864,50.0800682 C25.1399091,49.7613182 24.7415682,49.2037955 24.26325,48.7254773 C23.7853182,48.2471591 22.98825,48.2471591 21.4740909,47.68925 C19.9603182,47.1313409 15.6573864,44.6613182 15.3370909,44.0242045 C14.688,42.7256364 18.6860909,42.296 19.2424545,42.1105455 C20.1987045,41.7921818 21.0753636,41.0747045 22.35075,40.5963864 C23.62575,40.1180682 24.90075,40.5164091 25.5386364,40.9947273 C26.1761364,41.4730455 26.8136364,41.3084545 26.8136364,41.3084545 Z M26.8136364,47.6846136 C26.8136364,47.6846136 29.9219318,47.0521364 30.8781818,46.41425 C31.8344318,45.7763636 32.7910682,45.3776364 33.0302273,44.8201136 C33.2693864,44.2625909 31.8344318,43.7046818 31.0381364,43.7046818 C30.2402955,43.7046818 29.3636364,43.4651364 28.8057273,43.8638636 C28.2482045,44.2625909 28.1686136,45.1384773 27.6906818,45.2984318 C27.2123636,45.458 26.8136364,45.4533636 26.8136364,45.4533636 C26.8136364,45.4533636 26.4152955,45.458 25.9369773,45.2984318 C25.4590455,45.1384773 25.3790682,44.2625909 24.8215455,43.8638636 C24.2636364,43.4651364 23.3869773,43.7046818 22.5899091,43.7046818 C21.7924545,43.7046818 20.3582727,44.2625909 20.5970455,44.8201136 C20.8365909,45.3776364 21.7928409,45.7763636 22.7490909,46.41425 C23.7053409,47.0521364 26.8136364,47.6846136 26.8136364,47.6846136 Z M44.387,5.80820455 L48.3321591,5.80356818 L48.3321591,22.899 C48.3321591,22.899 44.2676136,24.3378182 43.0722045,23.3815682 C42.1399091,22.6358864 41.8319773,21.4547727 40.6790682,20.9026591 C39.9132955,20.536 38.6460227,20.2369545 38.1452955,21.1406591 C37.4842273,22.3341364 39.0242727,23.0898636 39.7359545,23.6933636 C40.2204545,24.1044545 41.07625,25.0174318 40.4418409,25.653 C39.72475,26.3704773 39.1270455,25.7727727 38.4095682,25.1750682 C37.6924773,24.5769773 34.5841818,22.3055455 34.5841818,22.3055455 C34.5841818,22.3055455 33.2693864,21.1101364 32.7910682,22.0667727 C32.31275,23.0230227 32.6716818,24.2184318 33.6279318,25.1750682 C34.5841818,26.1313182 36.1381364,27.4461136 36.6164545,28.5221364 C37.0947727,29.5981591 37.5730909,31.0327273 36.3772955,32.10875 C35.1818864,33.1843864 34.8233409,33.6627045 33.3887727,33.6627045 C31.9542045,33.6627045 31.1173409,32.9452273 31.1173409,32.9452273 C31.1173409,32.9452273 30.1610909,31.6304318 29.2044545,31.8695909 C28.2482045,32.10875 28.2482045,33.3045455 27.5311136,33.3037727 C26.8136364,33.3033864 26.8136364,33.3033864 26.8136364,33.3033864 C26.8136364,33.3033864 26.8136364,33.3033864 26.0965455,33.3037727 C25.3790682,33.3045455 25.3790682,32.10875 24.4228182,31.8695909 C23.4665682,31.6304318 22.5099318,32.9452273 22.5099318,32.9452273 C22.5099318,32.9452273 21.6730682,33.6627045 20.2388864,33.6627045 C18.8039318,33.6627045 18.4453864,33.1843864 17.2499773,32.10875 C16.0545682,31.0327273 16.5328864,29.5981591 17.0108182,28.5221364 C17.4891364,27.4461136 19.0430909,26.1313182 19.9997273,25.1750682 C20.9559773,24.2184318 21.3145227,23.0230227 20.8365909,22.0667727 C20.3582727,21.1101364 19.0430909,22.3055455 19.0430909,22.3055455 C19.0430909,22.3055455 15.9351818,24.5769773 15.2177045,25.1750682 C14.5002273,25.7727727 13.9025227,26.3704773 13.1854318,25.653 C12.5510227,25.0174318 13.4068182,24.1044545 13.8913182,23.6933636 C14.603,23.0898636 16.1434318,22.3341364 15.4823636,21.1406591 C14.9816364,20.2369545 13.7143636,20.536 12.9482045,20.9026591 C11.7956818,21.4547727 11.4873636,22.6358864 10.5554545,23.3815682 C9.36004545,24.3378182 5.29511364,22.899 5.29511364,22.899 L5.29511364,5.80356818 L9.24027273,5.80820455 C8.40340909,6.40590909 7.32777273,8.67734091 7.56654545,9.27504545 C7.80570455,9.87275 7.92509091,9.99213636 13.7831364,10.8293864 C19.6411818,11.6658636 20.9559773,12.6225 22.7490909,14.8939318 C24.5425909,17.1653636 24.0642727,21.947 23.8251136,23.6207273 C23.5859545,25.2944545 20.1191136,28.5221364 19.7594091,29.002 C19.36725,29.5262955 19.4248182,30.1201364 19.9823409,30.4655455 C20.6774091,30.8967273 21.0058182,30.2619318 21.5996591,30.0150455 C22.5130227,29.6348636 23.4325682,29.7098182 24.3733636,29.9269545 C24.6345455,29.9876136 26.8136364,30.3442273 26.8136364,30.6741818 C26.8136364,30.3442273 28.9923409,29.9876136 29.2542955,29.9269545 C30.1947045,29.7098182 31.1146364,29.6348636 32.028,30.0150455 C32.6214545,30.2619318 32.95025,30.8967273 33.6453182,30.4655455 C34.2024545,30.1201364 34.2600227,29.5262955 33.8678636,29.002 C33.5081591,28.5221364 30.0413182,25.2944545 29.8021591,23.6207273 C29.5633864,21.947 29.0850682,17.1653636 30.8781818,14.8939318 C32.6716818,12.6225 33.9864773,11.6658636 39.8441364,10.8293864 C45.7021818,9.99213636 45.8215682,9.87275 46.0607273,9.27504545 C46.2998864,8.67734091 45.2238636,6.40590909 44.387,5.80820455 Z M39.9639091,18.3607727 C39.9639091,18.3607727 39.72475,19.3170227 38.5293409,18.8387045 C37.3339318,18.3607727 37.3339318,18.0416364 37.0151818,17.4841136 C36.6960455,16.9262045 35.5010227,17.3245455 35.3418409,18.0420227 C35.1818864,18.7591136 36.53725,19.6357727 37.5730909,19.7953409 C38.6085455,19.9549091 40.681,20.1140909 41.1593182,19.6357727 C41.6376364,19.1574545 41.3984773,17.8824545 39.9639091,18.3607727 Z M48.3321591,55.1812273 L48.3321591,62.1141364 L29.5633864,62.1141364 C29.5633864,62.1141364 33.5081591,61.3974318 34.7039545,59.8434773 C35.8993636,58.2895227 36.2579091,57.3328864 36.4970682,56.3766364 C36.7358409,55.42 37.5730909,55.42 37.9316364,55.3006136 C38.2901818,55.1812273 39.0076591,55.3006136 39.9639091,54.7029091 C40.9201591,54.1052045 41.1593182,53.2683409 41.7570227,53.8660455 C42.3547273,54.46375 41.7570227,55.7789318 41.1593182,56.3766364 C40.5616136,56.9743409 39.9639091,57.9305909 40.9201591,58.7674545 C41.8767955,59.6043182 43.0722045,59.126 44.0284545,58.7674545 C44.9847045,58.4089091 47.8538409,56.4960227 48.3321591,55.1812273 Z M48.3321591,44.41675 L48.3321591,50.3941818 C48.3321591,50.3941818 47.2561364,52.0729318 46.5390455,51.4752273 C45.8215682,50.8775227 45.4630227,50.3992045 45.9413409,49.5623409 C46.4192727,48.7254773 47.8538409,47.0467273 48.3321591,44.41675 Z M38.1707955,34.6189545 C37.4533182,35.0972727 36.1381364,36.6512273 36.4970682,37.72725 C36.8556136,38.8032727 40.2030682,40.8355455 40.9201591,41.0747045 C41.6376364,41.3138636 41.9961818,41.7917955 42.2353409,41.3138636 C42.4745,40.8355455 40.4418409,37.8466364 39.72475,36.6512273 C39.0076591,35.4558182 38.1707955,34.6189545 38.1707955,34.6189545 Z M12.4679545,19.6357727 C12.9462727,20.1140909 15.0187273,19.9549091 16.0545682,19.7953409 C17.0904091,19.6357727 18.4453864,18.7591136 18.2858182,18.0420227 C18.12625,17.3245455 16.9312273,16.9262045 16.6124773,17.4841136 C16.2933409,18.0416364 16.2933409,18.3607727 15.0979318,18.8387045 C13.9025227,19.3170227 13.66375,18.3607727 13.66375,18.3607727 C12.2287955,17.8824545 11.9900227,19.1574545 12.4679545,19.6357727 Z M5.29511364,55.1812273 L5.29511364,62.1141364 L24.0642727,62.1141364 C24.0642727,62.1141364 20.1191136,61.3974318 18.9237045,59.8434773 C17.7282955,58.2895227 17.3693636,57.3328864 17.1305909,56.3766364 C16.8914318,55.42 16.0545682,55.42 15.6960227,55.3006136 C15.3370909,55.1812273 14.62,55.3006136 13.66375,54.7029091 C12.7071136,54.1052045 12.4679545,53.2683409 11.87025,53.8660455 C11.2725455,54.46375 11.87025,55.7789318 12.4679545,56.3766364 C13.0656591,56.9743409 13.66375,57.9305909 12.7071136,58.7674545 C11.7508636,59.6043182 10.5554545,59.126 9.59881818,58.7674545 C8.64256818,58.4089091 5.77343182,56.4960227 5.29511364,55.1812273 Z M5.29511364,44.41675 L5.29511364,50.3941818 C5.29511364,50.3941818 6.37113636,52.0729318 7.08861364,51.4752273 C7.80570455,50.8775227 8.16425,50.3992045 7.68631818,49.5623409 C7.208,48.7254773 5.77343182,47.0467273 5.29511364,44.41675 Z" id="Fill-3"></path>
                    </g>
                </g>
            </g>
        </g>
    </g>
</svg>