<?xml version="1.0" encoding="UTF-8"?>
<svg width="75px" height="68px" viewBox="0 0 75 68" version="1.1" xmlns="http://www.w3.org/2000/svg" xmlns:xlink="http://www.w3.org/1999/xlink">
    <!-- Generator: Sketch 52.2 (67145) - http://www.bohemiancoding.com/sketch -->
    <title>stussy</title>
    <desc>Created with Sketch.</desc>
    <g id="Page-1" stroke="none" stroke-width="1" fill="none" fill-rule="evenodd">
        <g id="Artboard" transform="translate(-742.000000, -837.000000)" fill="#747474">
            <g id="Brands" transform="translate(50.000000, 750.000000)">
                <g id="Brand-logos" transform="translate(0.000000, 87.000000)">
                    <g id="stussy" transform="translate(692.095710, 0.000000)">
                        <path d="M36.3027081,11.0721739 L35.8883727,11.2170435 L35.4402484,11.4869317 L35.1192547,11.785118 L34.9465093,12.1601739 L34.8383851,12.6399752 L34.8012174,13.0576894 L34.8383851,13.4690683 L34.9465093,13.9484472 L35.1192547,14.3175901 L35.3777391,14.5477764 L35.7346335,14.7492422 L36.061118,14.8776398 L36.4872795,14.9397267 L36.9924224,14.9422609 L37.4101366,14.8776398 L37.8046211,14.6896894 L38.2248696,14.394882 L38.5171429,14.0886708 L38.6734161,13.6848944 L38.7561988,13.176795 L38.7591553,12.7392298 L38.6738385,12.3362981 L38.5095404,11.8822609 L38.2882236,11.5557764 L37.776323,11.2947578 L37.0861863,11.1549565 L36.3027081,11.0721739 Z M20.776323,16.3795528 L20.3307329,16.3854658 L19.8353043,16.3930683 L19.2976398,16.4019379 L18.7261863,16.4120745 L18.1293913,16.4230559 L17.5161242,16.434882 L16.8944099,16.4475528 L16.2726957,16.4610683 L15.6594286,16.4745839 L15.0626335,16.4885217 L14.4916025,16.502882 L13.9539379,16.5168199 L13.458087,16.5307578 L13.0129193,16.5446957 L12.5424099,16.5628571 L12.010236,16.5953789 L11.4290683,16.6380373 L10.8115776,16.6861863 L10.1695901,16.7360248 L9.51619876,16.7833292 L8.86322981,16.8238758 L8.22293168,16.8530186 L7.60797516,16.8669565 L7.0306087,16.8610435 L6.50350311,16.8314783 L6.03848447,16.7740373 L5.58402484,16.6376149 L5.05903106,16.4222112 L4.61344099,16.2266584 L4.33510559,16.0898137 L4.00904348,15.9136894 L3.74760248,15.7430559 L3.57401242,15.5728447 L3.37803727,15.357441 L3.18797516,15.195677 L2.73604969,14.985764 L2.17135404,14.8159752 L1.68606211,14.8011925 L1.04449689,15.1509068 L0.405888199,15.7578385 L0.0190062112,16.3795528 L0,17.1123478 L0.207378882,17.983677 L0.502186335,18.6826832 L0.877664596,19.1422112 L1.41701863,19.6106087 L1.92765217,19.9425839 L2.35677019,20.1043478 L2.89021118,20.2264099 L3.35311801,20.2610435 L3.9832795,20.1106832 L4.70382609,19.8386832 L5.32596273,19.6372174 L5.80914286,19.5459876 L6.38439752,19.4581366 L7.01498137,19.3761988 L7.66541615,19.3027081 L8.29895652,19.2397764 L8.88012422,19.1890932 L9.37301863,19.1536149 L9.80551553,19.129118 L10.2823602,19.1075776 L10.7980621,19.0885714 L11.3450186,19.0725217 L11.9181615,19.0590062 L12.5098882,19.0471801 L13.1142857,19.0378882 L13.725441,19.0298634 L14.3365963,19.0231056 L14.9414161,19.0180373 L15.5331429,19.0138137 L16.1058634,19.0108571 L16.6532422,19.0079006 L17.1685217,19.0053665 L17.6457888,19.0032547 L18.0778634,19.0011429 L18.8081242,18.9952298 L19.6600248,18.9981863 L20.3818385,19.0011429 L20.3265093,19.4429317 L20.2530186,19.9201988 L20.1626335,20.4282981 L20.0583106,20.9621615 L19.9417391,21.5162981 L19.8154534,22.0860621 L19.6811429,22.6663851 L19.5413416,23.2526211 L19.3985839,23.8392795 L19.2541366,24.4212919 L18.8364224,26.0900373 L18.7097143,26.6040497 L18.5922981,27.0880745 L18.4871304,27.5378882 L18.396323,27.948 L18.3253665,28.2841988 L18.245118,28.6605217 L18.156,29.0735901 L18.0592795,29.522559 L17.8430311,30.515528 L17.0629317,34.0941863 L16.9197516,34.753913 L16.7740373,35.4250435 L16.6270559,36.1058882 L15.7599503,36.1612174 L14.9439503,36.2102112 L14.1777888,36.2537143 L13.4606211,36.2917267 L12.7907578,36.3242484 L12.1669317,36.3517019 L11.5882981,36.3745093 L11.0531677,36.3930932 L10.5602733,36.4074534 L10.1083478,36.4180124 L9.69612422,36.4247702 L9.3223354,36.4289938 L8.98571429,36.4298385 L8.68499379,36.4281491 L8.41848447,36.4239255 L8.00372671,36.4408199 L7.51801242,36.4492671 L7.14549068,36.3474783 L7.10621118,36.2820124 L7.07495652,36.1882484 L7.06946584,36.1058882 L7.14042236,35.961441 L7.26544099,35.8136149 L7.38792547,35.7114037 L7.82253416,35.474882 L8.36146584,35.2607453 L8.97219876,35.0673043 L9.62263354,34.8937143 L10.2810932,34.737441 L10.9150559,34.5980621 L11.4928447,34.4734658 L11.9819379,34.3623851 L12.527205,34.2432795 L13.1717267,34.120795 L13.725441,34.0439255 L14.0012422,34.0498385 L14.3277267,34.0637764 L14.603528,34.0439255 L15.1230311,33.879205 L15.7134907,33.6152298 L16.1818882,33.3314037 L16.4826087,33.0441988 L16.7888199,32.6640745 L16.9708571,32.3004224 L16.9793043,31.9768944 L16.9117267,31.5933913 L16.8183851,31.2698634 L16.6616894,30.9205714 L16.4315031,30.5286211 L16.1818882,30.238882 L15.8777888,30.0834534 L15.488795,29.9702609 L15.1509068,29.9335155 L14.5659379,30.0872547 L13.8990311,30.3905093 L13.3309565,30.6460373 L12.8536894,30.7972422 L12.286882,30.9632298 L11.6664348,31.1385093 L11.0282484,31.3184348 L10.4090683,31.4970932 L9.84521739,31.6694161 L9.37301863,31.8294907 L8.94981366,31.9849193 L8.47550311,32.1610435 L7.95895652,32.3557516 L7.41115528,32.566087 L6.8413913,32.7899379 L6.2602236,33.0247702 L5.67778882,33.2676273 L5.10380124,33.5163975 L4.54881988,33.7681242 L4.02213665,34.0206957 L3.53473292,34.2711553 L3.09632298,34.5173913 L2.71662112,34.7568696 L2.16079503,35.1690932 L1.56737888,35.7147826 L1.21470807,36.2714534 L1.20710559,36.7026832 L1.33761491,37.2103602 L1.5331677,37.6078012 L1.92258385,37.9541366 L2.46742857,38.2666832 L2.95863354,38.4858882 L3.49967702,38.6442733 L4.16742857,38.781118 L4.88206211,38.8934658 L5.56248447,38.9787826 L6.12760248,39.0328447 L6.58797516,39.0624099 L7.1133913,39.0809938 L7.6882236,39.0907081 L8.29937888,39.0919752 L8.93207453,39.0860621 L9.57195031,39.0738137 L10.204646,39.0564969 L10.8158012,39.0353789 L11.3910559,39.010882 L11.9160497,38.9842733 L12.3764224,38.9568199 L12.8993043,38.9314783 L13.5421366,38.9052919 L14.2440994,38.8824845 L14.944795,38.8685466 L15.5838261,38.8677019 L15.7215155,38.9365466 L15.7768447,39.0704348 L15.7874037,39.1984099 L15.7671304,39.4704099 L15.7257391,39.7892919 L15.6649193,40.1529441 L15.5855155,40.5571429 L15.4896398,40.9997764 L15.3781366,41.4774658 L15.253118,41.9864099 L15.1154286,42.5244969 L14.9676025,43.0883478 L14.8100621,43.6741615 L14.6444969,44.2798261 L14.4730186,44.9015404 L14.2968944,45.5363478 L13.935354,46.8334161 L13.7537391,47.4889193 L13.5729689,48.1456894 L13.2574658,48.8185093 L12.8486211,49.5935404 L12.6184348,50.283677 L12.658559,50.9961988 L12.8541118,51.8109317 L13.1653913,52.4216646 L13.6147826,52.7641988 L14.2411429,53.061118 L14.9050932,53.2773665 L15.4689441,53.3761988 L16.1645714,53.3158012 L16.9708571,53.1054658 L17.607354,52.8161491 L18.004795,52.4470062 L18.4018137,51.9338385 L18.7143602,51.4798012 L18.8364224,51.2470807 L18.9698882,50.9746584 L19.1092671,50.7672795 L19.2638509,50.6557764 L19.6131429,50.4492422 L20.2703354,50.0513789 L21.3490435,49.3671553 L21.3025839,49.9732422 L21.2172671,50.6021366 L21.1708075,50.9961988 L21.1454658,51.1811925 L21.085913,51.3885714 L21.017913,51.5562484 L20.7877267,51.8801988 L20.4929193,52.2463851 L20.3053913,52.5872298 L20.2711801,52.9534161 L20.3138385,53.3960497 L20.3818385,53.7706832 L20.4810932,54.1938882 L20.6428571,54.6796025 L20.8523478,55.0432547 L21.2362733,55.289913 L21.7498634,55.4884224 L22.2017888,55.5906335 L22.7669068,55.6159752 L23.4308571,55.5479752 L23.9452919,55.3617143 L24.2147578,55.0090435 L24.4305839,54.5178385 L24.5813665,54.0891429 L24.7401739,53.5464099 L24.8765963,52.8963975 L24.8998261,52.3452174 L24.7946584,52.0896894 L24.6274037,51.8033292 L24.5053416,51.5562484 L24.3744099,50.9653665 L24.2836025,50.2553789 L24.2633292,49.6471801 L24.328795,49.247205 L24.4567702,48.7792298 L24.5813665,48.3872795 L24.684,48.0295404 L24.8229565,47.6122484 L24.9758509,47.2798509 L25.0869317,47.1379379 L25.2343354,46.9896894 L25.3703354,46.8726957 L25.7310311,46.6830559 L26.1766211,46.4900373 L26.5542112,46.3257391 L26.9267329,46.1069565 L27.3613416,45.8569193 L27.7503354,45.7652671 L27.8381863,45.8227081 L27.9260373,45.916472 L27.979677,46.0072795 L28.041764,46.4448447 L28.0105093,46.9782857 L27.979677,47.4327453 L27.9653168,47.6882733 L27.9513789,47.9835031 L27.979677,48.2217143 L28.0620373,48.3665839 L28.1815652,48.5139876 L28.2977143,48.6166211 L28.7010683,48.7610683 L29.2095901,48.840472 L29.6467329,48.8582112 L30.0589565,48.8041491 L30.5328447,48.6875776 L30.9193043,48.5401739 L31.1946832,48.3720745 L31.4924472,48.139354 L31.7086957,47.903677 L31.7906335,47.693764 L31.8387826,47.4306335 L31.8611677,47.2038261 L31.8679255,46.5364969 L31.818087,45.7335901 L31.7521988,44.9306832 L31.7086957,44.2637764 L31.6918012,43.9119503 L31.6829317,43.5001491 L31.7086957,43.1563478 L31.8024596,42.8243727 L31.9498634,42.4408696 L32.1031801,42.1257888 L32.3244969,41.8276025 L32.6197267,41.5070311 L32.8921491,41.2599503 L33.1134658,41.123528 L33.383354,40.9811925 L33.6046708,40.8532174 L33.8179627,40.7222857 L34.062087,40.5550311 L34.2411677,40.3822857 L34.4937391,39.8910807 L34.701118,39.2697888 L34.8012174,38.7274783 L34.7779876,38.471528 L34.7095652,38.1733416 L34.6356522,37.9258385 L34.5959503,37.8265839 L34.5397764,37.7070559 L34.4831801,37.6078012 L34.355205,37.5140373 L34.1909068,37.4084472 L34.0886957,37.2893416 L34.0912298,37.0709814 L34.1706335,36.8040497 L34.2411677,36.5768199 L34.3720994,35.9132919 L34.4831801,35.6349565 L34.6077764,35.496 L34.7864348,35.3625342 L34.9541118,35.3164969 L35.1184099,35.4360248 L35.260323,35.6598758 L35.3485963,35.8638758 L35.4753043,36.307354 L35.5678012,36.8217888 L35.6311553,37.3919752 L35.6708571,38.0027081 L35.6928199,38.6387826 L35.7016894,39.2845714 L35.7029565,39.9248696 L35.7025342,40.544472 L35.7054907,41.1281739 L35.7168944,41.6603478 L35.7430807,42.1257888 L35.7929193,42.5933416 L35.8626087,43.1293168 L35.946236,43.7163975 L36.0366211,44.3376894 L36.1278509,44.9762981 L36.2140124,45.6149068 L36.2883478,46.2366211 L36.3449441,46.8237019 L36.3770435,47.359677 L36.3791553,47.8272298 L36.3111553,48.4578137 L36.1675528,49.2146832 L36.0125466,49.9715528 L35.908646,50.6017143 L35.8431801,51.1017888 L35.7954534,51.6922484 L35.8321988,52.1927453 L36.0252174,52.663677 L36.3432547,53.1768447 L36.6976149,53.5290932 L37.1520745,53.6735404 L37.7193043,53.7195776 L38.199528,53.694236 L38.602882,53.5831553 L39.0598758,53.3812671 L39.5481242,53.1346087 L39.894882,52.9863602 L40.2581118,52.7139379 L40.5026584,52.4216646 L40.621764,51.9448199 L40.6386584,51.345913 L40.5791056,50.8437267 L40.3915776,50.3178882 L40.0879006,49.7274286 L39.7901366,49.2526957 L39.6195031,49.0799503 L39.4007205,48.8869317 L39.230087,48.7053168 L39.1397019,48.5148323 L39.0573416,48.2766211 L39.0011677,48.0692422 L38.8947329,47.6367453 L38.7895652,47.1518758 L38.686087,46.6235031 L38.5847205,46.0596522 L38.4854658,45.4700373 L38.3900124,44.8618385 L38.2979379,44.2447702 L38.210087,43.6268571 L38.1273043,43.0165466 L38.0495901,42.4227081 L37.9782112,41.8537888 L37.9131677,41.318236 L37.854882,40.8249193 L37.8046211,40.3822857 L37.6715776,39.644 L37.5474037,38.7785839 L37.6521491,38.0914037 L37.7315528,38.0200248 L37.8565714,37.9630062 L37.9701863,37.9258385 L38.472795,37.8358758 L39.0801491,37.7788571 L39.7407205,37.7492919 L40.402559,37.7421118 L41.0132919,37.7518261 L41.5209689,37.7729441 L42.0877764,37.8058882 L42.7677764,37.8586832 L43.5001491,37.9385093 L44.2236522,38.0521242 L44.8783106,38.2067081 L45.4024596,38.409441 L45.5528199,38.5086957 L45.7061366,38.6535652 L45.7973665,38.8039255 L45.7944099,38.9036025 L45.7576646,39.0227081 L45.7209193,39.1219627 L45.5325466,39.601764 L45.2884224,40.1575901 L45.0092422,40.7594534 L44.7169689,41.375677 L44.4331429,41.9758509 L44.1793043,42.5291429 L43.9769938,43.0038758 L43.7683478,43.4967702 L43.5208447,44.0935652 L43.2746087,44.7283727 L43.0693416,45.3369938 L42.9464348,45.8548075 L42.9037764,46.3515031 L42.9206708,46.9444969 L43.0224596,47.4327453 L43.2758758,47.861441 L43.6564224,48.2981615 L44.053441,48.5401739 L44.6160248,48.4514783 L45.2601242,48.1363975 L45.7973665,47.8272298 L45.9329441,47.7550062 L46.1331429,47.6506832 L46.3958509,47.5142609 L46.7198012,47.3461615 L47.1024596,47.1459627 L47.5417143,46.9145093 L48.0367205,46.6518012 L48.5849441,46.3578385 L49.1842733,46.0326211 L49.833441,45.6774161 L50.529913,45.2913789 L51.2724224,44.875354 L52.0588571,44.4293416 L52.4985342,44.0931429 L53.0117019,43.6652919 L53.5341615,43.1922484 L54.0012919,42.7187826 L54.3497391,42.2909317 L54.6475031,41.7452422 L54.9169689,41.0635528 L55.0622609,40.4587329 L55.0707081,40.1005714 L55.0200248,39.6832795 L54.9093665,39.3513043 L54.4350559,38.9031801 L53.7597019,38.4884224 L53.1658634,38.1674286 L52.683528,37.9161242 L52.1209441,37.6525714 L51.4975404,37.3797267 L50.8335901,37.1005466 L50.1497888,36.8184099 L50.2182112,36.6655155 L50.3064845,36.4923478 L50.3913789,36.3474783 L50.4568447,36.2368199 L50.5421615,36.1147578 L50.6333913,36.029441 L51.1558509,35.9078012 L51.8117764,35.9052671 L52.3768944,35.9534161 L53.0894161,36.076323 L53.8171429,36.2080994 L54.541913,36.3462112 L55.2451429,36.4877019 L55.9086708,36.630882 L56.5143354,36.7732174 L57.0431304,36.9125963 L57.4777391,37.0464845 L57.7995776,37.1727702 L57.9896398,37.2893416 L58.0407453,37.3831056 L58.0694658,37.5051677 L58.0787578,37.6078012 L57.9744348,38.1839006 L57.748472,38.8588323 L57.4625342,39.5620621 L57.1787081,40.2247453 L56.9586584,40.7763478 L56.7842236,41.254882 L56.3382112,42.4341118 L56.1130932,43.048646 L55.9175404,43.6217888 L55.7747826,44.110882 L55.6539876,44.6451677 L55.5306584,45.2968696 L55.4204224,45.9903851 L55.3397516,46.6509565 L55.3042733,47.2038261 L55.3042733,47.6806708 L55.3465093,48.2453665 L55.4567453,48.7053168 L55.6818634,49.0486957 L56.0083478,49.4060124 L56.3348323,49.6471801 L56.6672298,49.7553043 L57.0845217,49.8068323 L57.4422609,49.8127453 L57.9022112,49.7329193 L58.433118,49.582559 L58.8677267,49.4182609 L59.5088696,49.0318012 L60.232795,48.5148323 L60.8401491,48.0692422 L61.3055901,47.6912298 L61.8487453,47.1983354 L62.4290683,46.7045963 L63.0060124,46.3248944 L63.5381863,46.1728447 L63.6264596,46.1981863 L63.7172671,46.2577391 L63.7801988,46.3257391 L63.8224348,46.4448447 L63.8477764,46.5922484 L63.856646,46.7202236 L63.7455652,47.2768944 L63.5390311,47.9155031 L63.3857143,48.4637267 L63.3257391,48.8383602 L63.2801242,49.2809938 L63.2965963,49.6471801 L63.4135901,49.9457888 L63.5956273,50.2693168 L63.7801988,50.5252671 L64.0015155,50.7322236 L64.2967453,50.9421366 L64.5691677,51.072646 L64.9640745,51.1376894 L65.4383851,51.1347329 L65.8417391,51.072646 L66.2391801,50.9307329 L66.6877267,50.7013913 L67.0256149,50.4492422 L67.2013168,50.1451429 L67.3461863,49.7561491 L67.4200994,49.4182609 L67.3947578,49.1395031 L67.3183106,48.8185093 L67.267205,48.5401739 L67.2266584,47.9708323 L67.2084969,47.2785839 L67.1975155,46.5838012 L67.178087,46.0072795 L67.1472547,45.7348571 L67.1075528,45.4142857 L67.1016398,45.1418634 L67.2650932,44.6029317 L67.5408944,43.980795 L67.8357019,43.362882 L68.0565963,42.8383106 L68.2166708,42.3027578 L68.3851925,41.6489441 L68.5528696,40.9533168 L68.7095652,40.2935901 L68.8455652,39.7457888 L68.9507329,39.2740124 L69.0520994,38.7118509 L69.1572671,38.0926708 L69.2751056,37.4502609 L69.412795,36.8175652 L69.579205,36.228795 L69.7819379,35.7173168 L70.0290186,35.3164969 L70.1227826,35.2341366 L70.2448447,35.1657143 L70.3470559,35.151354 L70.4606708,35.270882 L70.5434534,35.464323 L70.5890683,35.6349565 L70.6773416,36.1054658 L70.7373168,36.6456646 L70.7723727,37.2407702 L70.7871553,37.8747329 L70.7854658,38.5327702 L70.7719503,39.199677 L70.7499876,39.8594037 L70.724646,40.4971677 L70.698882,41.097764 L70.6781863,41.6455652 L70.6655155,42.1257888 L70.6587578,42.5612422 L70.6481988,43.0376646 L70.6334161,43.5495652 L70.615677,44.0914534 L70.5949814,44.6591056 L70.5717516,45.2470311 L70.5464099,45.8501615 L70.5198012,46.4630062 L70.4919255,47.0813416 L70.4636273,47.6992547 L70.3795776,49.5010435 L70.3538137,50.0678509 L70.3293168,50.6088944 L70.3069317,51.1191056 L70.2875031,51.5934161 L70.2706087,52.0271801 L70.2621615,52.4520745 L70.2617391,52.9128696 L70.2672298,53.405764 L70.2777888,53.9273789 L70.2921491,54.4730683 L70.3090435,55.0394534 L70.3267826,55.6227329 L70.3445217,56.2186832 L70.3605714,56.8230807 L70.374087,57.4329689 L70.3829565,58.0437019 L70.3863354,58.6514783 L70.3833789,59.2529193 L70.3715528,59.8433789 L70.3508571,60.4194783 L70.3191801,60.9769938 L70.2752547,61.5125466 L70.218236,62.021913 L70.1460124,62.5012919 L70.0581615,62.9464596 L69.9529938,63.3540373 L69.8165714,63.6125217 L69.6180621,63.8933913 L69.4816398,64.1430062 L69.3828075,64.8196273 L69.3768944,65.625913 L69.4816398,66.294087 L69.7405466,66.8245714 L70.1519255,67.4006708 L70.5890683,67.7955776 L71.0663354,67.9201739 L71.6686211,67.9341118 L72.1800994,67.8720248 L72.6962236,67.706882 L73.2752795,67.4260124 L73.6815901,67.0830559 L73.8399752,66.540323 L73.8627826,65.8480745 L73.8344845,65.2631056 L73.78,64.5442484 L73.6549814,63.7121988 L73.44,63.0355776 L72.9749814,62.4463851 L72.8187081,62.1025839 L72.8035031,61.9285714 L72.806882,61.5007205 L72.8089938,61.0280994 L72.8094161,60.5166211 L72.8094161,59.9721988 L72.8081491,59.3999006 L72.8060373,58.8056398 L72.8035031,58.1949068 L72.8005466,57.5740373 L72.7836522,54.504323 L72.781118,53.9370932 L72.7785839,53.3990062 L72.7773168,52.8947081 L72.776472,52.4305342 L72.7768944,52.0123975 L72.7781615,51.6453665 L72.765913,51.2703106 L72.7545093,50.8521739 L72.7431056,50.3947578 L72.7325466,49.9031304 L72.7219876,49.3802484 L72.7122733,48.8303354 L72.702559,48.2576149 L72.6941118,47.6663106 L72.686087,47.0602236 L72.6780621,46.4431553 L72.6713043,45.8197516 L72.6653913,45.1933913 L72.6599006,44.5682981 L72.6552547,43.9486957 L72.6514534,43.3388075 L72.6484969,42.7420124 L72.6463851,42.1625342 L72.645118,41.6045963 L72.645118,41.0724224 L72.6459627,40.5698137 L72.6476522,40.1009938 L72.6506087,39.6693416 L72.6637019,39.1485714 L72.687354,38.5247453 L72.717764,37.8493913 L72.7498634,37.1740373 L72.7798509,36.5502112 L72.8035031,36.029441 L72.8229317,35.5863851 L72.843205,35.1146087 L72.8639006,34.6162236 L72.885441,34.0941863 L72.9074037,33.549764 L72.9530186,32.4039006 L73.048472,29.9453416 L73.1215404,28.0244472 L73.4167702,27.6037764 L73.7090435,27.0703354 L73.9109317,26.5989814 L74.0895901,25.9371429 L74.2200994,25.1397267 L74.2289689,24.4609938 L74.083677,23.7480497 L73.7888696,22.9421863 L73.3635528,22.3990311 L72.8292671,22.2596522 L72.1353292,22.2862609 L71.4413913,22.429441 L70.9071056,22.6406211 L70.4332174,23.0528447 L69.9850932,23.6542857 L69.7236522,24.2189814 L69.7350559,24.7959255 L69.8904845,25.4746584 L70.0290186,26.0516025 L70.097441,26.3240248 L70.1688199,26.6445963 L70.1945839,26.9170186 L70.1772671,27.0221863 L70.1434783,27.1387578 L70.1181366,27.2354783 L70.0125466,27.670087 L69.899354,28.1558012 L69.778559,28.6837516 L69.6514286,29.245913 L69.3844969,30.4369689 L69.2463851,31.0485466 L69.1065839,31.6597019 L68.9667826,32.2615652 L68.8269814,32.8461118 L68.6892919,33.4040497 L68.554559,33.9269317 L68.4236273,34.4063106 L68.2981863,34.8333168 L68.1436025,35.3595776 L67.9552298,35.9952298 L67.7318012,36.6541118 L67.4728944,37.2496398 L67.178087,37.6969193 L67.1358509,37.7277516 L67.0762981,37.7590062 L67.0256149,37.7729441 L66.812323,37.6850932 L66.5850932,37.5178385 L66.389118,37.3784596 L66.2079255,37.2817391 L65.9980124,37.1740373 L65.8417391,37.0604224 L65.8045714,37.0118509 L65.7733168,36.9518758 L65.7526211,36.8948571 L65.6559006,36.384646 L65.5912795,35.7806708 L65.5532671,35.113764 L65.5380621,34.4147578 L65.5397516,33.7140621 L65.5541118,33.0416646 L65.5760745,32.4288199 L65.6001491,31.9059379 L65.6571677,31.4062857 L65.7657143,30.8225839 L65.9034037,30.1835528 L66.0470062,29.5183354 L66.1749814,28.8543851 L66.2640994,28.2212671 L66.2919752,27.6464348 L66.236646,27.1590311 L66.0571429,26.7615901 L65.7623354,26.3388075 L65.4472547,26.0516025 L64.9163478,25.8813913 L64.2519752,25.818882 L63.7037516,25.8860373 L63.2805466,26.1533913 L62.8543851,26.5736398 L62.5836522,26.9934658 L62.5760497,27.5585839 L62.706559,28.2398509 L62.7492174,28.8134161 L62.5329689,29.4072547 L62.1807205,30.0775404 L61.8711304,30.6460373 L61.6198261,31.1490683 L61.3144596,31.7475528 L60.9803727,32.3929193 L60.6416398,33.0357516 L60.3236025,33.628323 L60.0511801,34.1203727 L59.9037764,34.444323 L59.719205,34.8189565 L59.5038012,35.0749068 L59.4522733,35.0892671 L59.389764,35.0863106 L59.338236,35.0749068 L59.1156522,35.0225342 L58.845764,34.9334161 L58.5247702,34.8138882 L58.1488696,34.6711304 L57.7146832,34.5114783 L57.2175652,34.3416894 L56.6554037,34.1685217 L56.0227081,33.9983106 L55.3169441,33.838236 L54.5338882,33.6946335 L53.6697391,33.5746832 L52.7202733,33.4838758 L53.2271056,32.576646 L53.6435528,31.8501863 L53.9548323,31.358559 L54.1626335,31.1173913 L54.4261863,30.8534161 L54.6677764,30.6460373 L55.2759752,30.2228323 L56.0197516,29.7624596 L56.6528696,29.3734658 L56.9569689,29.1888944 L57.3168199,28.9641988 L57.5947329,28.7369689 L57.9896398,28.2085963 L58.375677,27.5302857 L58.6257143,26.9170186 L58.7418634,26.2720745 L58.7815652,25.5 L58.7021615,24.8550559 L58.5399752,24.5120994 L58.2789565,24.1463354 L57.9896398,23.9136149 L57.4017143,23.8202733 L56.6807453,23.8967205 L56.0932422,24.066087 L55.5424845,24.4415652 L54.9638509,24.9893665 L54.514882,25.4915528 L54.1677019,25.981913 L53.7968696,26.6027826 L53.4256149,27.2713789 L53.076323,27.9040745 L52.7713789,28.4189317 L52.4888199,28.8387578 L52.1471304,29.3278509 L51.7708075,29.8574907 L51.3830807,30.400646 L51.0080248,30.9285963 L50.6697143,31.4143106 L50.3913789,31.8294907 L50.1620373,32.2252422 L49.9229814,32.7050435 L49.6729441,33.2410186 L49.4098137,33.8040248 L49.1327453,34.3661863 L48.8408944,34.8983602 L48.5317267,35.3718261 L48.2052422,35.7587081 L47.8589068,36.029441 L47.8073789,36.035354 L47.7448696,36.0323975 L47.6933416,36.029441 L47.0429068,35.9500373 L46.282236,35.8250186 L45.6318012,35.7114037 L44.9703851,35.6573416 L44.2016894,35.574559 L43.6589565,35.3164969 L43.6420621,35.2653913 L43.6420621,35.202882 L43.6589565,35.151354 L43.9736149,34.7602484 L44.4593292,34.3754783 L45.0244472,34.0135155 L45.5773168,33.6895652 L46.0262857,33.4205217 L46.3730435,33.1962484 L46.7823106,32.9491677 L47.1463851,32.7840248 L47.396,32.7498137 L47.693764,32.7379876 L47.935354,32.6953292 L48.4603478,32.3684224 L49.0136398,31.8890435 L49.4368447,31.4350062 L49.8119006,30.923528 L50.1865342,30.2794286 L50.3913789,29.6915031 L50.3884224,29.3477019 L50.3056398,28.9532174 L50.1497888,28.6605217 L49.6636522,28.3973913 L48.9942112,28.241118 L48.4062857,28.1895901 L47.9463354,28.2525217 L47.4154286,28.402882 L46.9808199,28.5840745 L46.6002733,28.8396025 L46.1859379,29.1943851 L45.8738137,29.5263602 L45.7204969,29.8498882 L45.5726708,30.2502857 L45.4024596,30.5569193 L45.037118,30.8635528 L44.5577391,31.1613168 L44.0061366,31.4485217 L43.4241242,31.7239006 L42.8539379,31.9861863 L42.3369689,32.2341118 L41.9154534,32.4659876 L41.4546584,32.7836025 L40.9153043,33.1890683 L40.3468075,33.617764 L39.7981615,34.0050683 L39.319205,34.2859379 L38.9014907,34.476 L38.3963478,34.6517019 L37.9701863,34.6804224 L37.8764224,34.6234037 L37.7881491,34.5296398 L37.7281739,34.4388323 L37.6631304,34.1490932 L37.6491925,33.7947329 L37.6521491,33.4969689 L37.6521491,33.0340621 L37.6656646,32.504 L37.6901615,31.9232547 L37.723528,31.3095652 L37.7632298,30.6794037 L37.8067329,30.0496646 L37.8515031,29.4372422 L37.8954286,28.8586087 L37.9359752,28.3310807 L37.9701863,27.8715528 L37.995528,27.2663106 L38.037764,26.5592795 L38.1230807,25.9624845 L38.4098634,25.3095155 L38.8157516,24.5661615 L39.0771925,23.9136149 L39.1308323,23.2969689 L39.0961988,22.570087 L38.9120497,22.0045466 L38.425913,21.6104845 L37.7222609,21.3127205 L37.0920994,21.2155776 L36.3939379,21.4318261 L35.6391801,21.8858634 L35.1192547,22.3990311 L34.994236,22.8053416 L34.9600248,23.3163975 L34.9541118,23.7480497 L34.9794534,24.4212919 L35.0385839,25.2132174 L35.0301366,25.8860373 L34.9536894,26.326559 L34.8392298,26.8139627 L34.6930932,27.3398012 L34.5211925,27.8947826 L34.329441,28.4704596 L34.1241739,29.0583851 L33.9117267,29.6501118 L33.6971677,30.2363478 L33.487677,30.8082236 L33.2887453,31.3581366 L33.1062857,31.8763727 L32.9466335,32.3544845 L32.8157019,32.7840248 L32.6843478,33.2596025 L32.546236,33.7985342 L32.4022112,34.3894161 L32.2539627,35.0191553 L32.1027578,35.6763478 L31.9502857,36.3474783 L31.7374161,36.4522236 L31.467528,36.5400745 L31.237764,36.5768199 L30.9167702,36.5599255 L30.5535404,36.4834783 L30.2832298,36.3474783 L30.2405714,36.2765217 L30.2152298,36.1852919 L30.2067826,36.1058882 L30.1569441,35.6412919 L30.1332919,35.1074286 L30.1324472,34.5207702 L30.1489193,33.8990559 L30.1780621,33.2596025 L30.2160745,32.6201491 L30.2574658,31.9975901 L30.2984348,31.4088199 L30.333913,30.8724224 L30.3592547,30.4044472 L30.3744596,29.867205 L30.379528,29.2226832 L30.3896646,28.5253665 L30.4200745,27.8314286 L30.4855404,27.1961988 L30.6012671,26.6754286 L30.8339876,26.2695404 L31.1659627,25.8209938 L31.390236,25.4151056 L31.4468323,25.0400497 L31.4438758,24.5944596 L31.390236,24.2189814 L31.1883478,23.5605217 L30.8584845,22.8201242 L30.4361242,22.3225839 L29.836795,22.1840497 L29.0795031,22.2321988 L28.4632795,22.3990311 L27.9974161,22.737764 L27.5374658,23.2483975 L27.2671553,23.7480497 L27.3271304,24.2709317 L27.545913,24.8841988 L27.6743106,25.4151056 L27.6405217,25.8797019 L27.5539379,26.4063851 L27.4255404,26.9803727 L27.2650435,27.5847702 L27.0842733,28.2043727 L26.8925217,28.8222857 L26.7016149,29.4233043 L26.5212671,29.9913789 L26.3624596,30.5104596 L26.2361739,30.9644969 L25.991205,31.9202981 L25.5523727,33.6270559 L25.3931429,34.2466584 L25.2305342,34.8827329 L25.0653913,35.5297888 L24.8998261,36.1823354 L24.8368944,36.2701863 L24.746087,36.3614161 L24.6578137,36.4239255 L24.5104099,36.4492671 L24.3342857,36.4412422 L24.186882,36.4239255 L23.9482484,36.4218137 L23.6327453,36.4137888 L23.308795,36.3601491 L23.2864099,35.8849938 L23.2640248,35.3574658 L23.2420621,34.7885466 L23.2209441,34.1904845 L23.2019379,33.5734161 L23.1846211,32.9495901 L23.1702609,32.3299876 L23.1588571,31.7260124 L23.1512547,31.148646 L23.1478758,30.6097143 L23.1491429,30.1201988 L23.1559006,29.6915031 L23.1613913,29.2801242 L23.1639255,28.8265093 L23.1643478,28.3357267 L23.1635031,27.262087 L23.1639255,26.6885217 L23.1664596,26.0963727 L23.1719503,25.4907081 L23.1816646,24.8765963 L23.1960248,24.2578385 L23.2162981,23.6399255 L23.2441739,23.0275031 L23.2792298,22.424795 L23.324,21.8368696 L23.3784845,21.2683727 L23.4439503,20.7239503 L23.5212422,20.2086708 L23.6116273,19.7267578 L23.7159503,19.2832795 L23.8354783,18.882882 L23.9706335,18.5302112 L24.1062112,18.5319006 L24.2506584,18.5344348 L24.4043975,18.5378137 L24.5670062,18.5416149 L24.7397516,18.5466832 L24.9217888,18.5521739 L25.1143851,18.5585093 L25.317118,18.5652671 L25.5308323,18.5728696 L25.755528,18.5813168 L25.9907826,18.5901863 L26.2382857,18.5999006 L26.4971925,18.6100373 L26.7679255,18.6210186 L27.0509068,18.6328447 L27.346559,18.6450932 L27.6553043,18.6573416 L27.9767205,18.6708571 L28.3116522,18.684795 L28.659677,18.6991553 L29.0220621,18.7139379 L29.3983851,18.7295652 L29.7890683,18.7456149 L30.1945342,18.762087 L30.6143602,18.7789814 L31.0498137,18.7962981 L31.5008944,18.8144596 L31.9671801,18.8326211 L32.4495155,18.8516273 L32.948323,18.8706335 L33.4636025,18.8900621 L33.995354,18.9103354 L34.5444224,18.9306087 L35.1103851,18.9513043 L35.6945093,18.972 L36.2959503,18.9935404 L36.9155528,19.0155031 L37.5533168,19.0374658 L38.210087,19.0598509 L38.885441,19.082236 L39.5798012,19.1050435 L40.2940124,19.1282733 L41.0276522,19.1519255 L41.7811429,19.1751553 L42.5544845,19.1992298 L43.3489441,19.2233043 L44.163677,19.2473789 L44.999528,19.2718758 L45.8564969,19.2963727 L46.7354286,19.3212919 L47.6354783,19.3462112 L48.557913,19.3711304 L49.5027329,19.3960497 L50.4699379,19.4213913 L51.4599503,19.4467329 L52.4731925,19.4720745 L53.5096646,19.4974161 L54.520795,19.8082733 L55.1243478,20.1195528 L55.4567453,20.3370683 L56.010882,20.5528944 L56.706087,20.6521491 L57.2766957,20.5790807 L57.8160497,20.1723478 L58.3241491,19.5307826 L58.6257143,18.9120248 L58.6996273,18.3355031 L58.6624596,17.6217143 L58.5273043,16.9197516 L58.307677,16.3795528 L58.2346087,16.2760745 L58.1125466,16.1333168 L57.9410683,15.9656398 L57.7197516,15.7869814 L57.4473292,15.6117019 L57.1233789,15.4537391 L56.7470559,15.3274534 L56.3175155,15.247205 L55.833913,15.2265093 L55.2954037,15.2801491 L54.7019876,15.4220621 L54.0519752,15.6666087 L53.3449441,16.0277267 L52.580472,16.519354 L52.3105839,16.5290683 L52.0060621,16.539205 L51.6685963,16.5493416 L51.3002981,16.5594783 L50.9024348,16.5700373 L50.477118,16.5801739 L50.0256149,16.5903106 L49.5504596,16.6004472 L49.0529193,16.6105839 L48.5351056,16.6202981 L47.9982857,16.6300124 L47.4445714,16.6393043 L46.8756522,16.6481739 L46.2932174,16.6570435 L45.6989565,16.6654907 L45.0954037,16.6735155 L44.4829814,16.681118 L43.864646,16.6882981 L43.2416646,16.6946335 L42.6157267,16.7005466 L41.9885217,16.7060373 L41.3625839,16.7111056 L40.7387578,16.7149068 L40.1191553,16.7187081 L39.5054658,16.7212422 L38.8998012,16.7229317 L38.3034286,16.7241988 L37.7184596,16.7241988 L37.1465839,16.723354 L36.5894907,16.7216646 L36.0488696,16.7191304 L35.5268323,16.7153292 L35.0250683,16.7106832 L34.5448447,16.7047702 L34.0886957,16.6975901 L33.6443727,16.6895652 L33.1569689,16.6777391 L32.6307081,16.6629565 L32.0727702,16.6456398 L31.4882236,16.6262112 L30.882559,16.6046708 L30.2625342,16.581441 L29.6332174,16.5573665 L29.0009441,16.5320248 L28.371205,16.5062609 L27.7494907,16.4804969 L27.142559,16.4551553 L26.5550559,16.430236 L25.9937391,16.4065839 L25.4640994,16.3841988 L24.9720497,16.3635031 L24.5230807,16.3444969 L24.123528,16.3284472 L24.2046211,15.8596273 L24.2772671,15.3502609 L24.3427329,14.8058385 L24.4022857,14.2335404 L24.4571925,13.6388571 L24.5087205,13.0289689 L24.5581366,12.4093665 L24.6071304,11.7868075 L24.6565466,11.1667826 L24.7076522,10.5568944 L24.7621366,9.96221118 L24.8212671,9.38991304 L24.8863106,8.84549068 L24.9581118,8.33570186 L25.0387826,7.86688199 L25.1287453,7.4449441 L25.2883975,6.95880745 L25.5236522,6.39157764 L25.7939627,5.7842236 L26.0575155,5.17686957 L26.273764,4.60963975 L26.4013168,4.12350311 L26.4549565,3.4701118 L26.4325714,2.69803727 L26.3252919,2.06154037 L26.1162236,1.51754037 L25.7986087,0.878086957 L25.4070807,0.315080745 L24.9758509,0 L24.3456894,0.0574409938 L23.6251429,0.391950311 L23.0798758,0.788968944 L22.7022857,1.33170186 L22.3838261,2.04929193 L22.2017888,2.68536646 L22.2245963,3.40971429 L22.3610186,4.26414907 L22.4433789,4.98849689 L22.4349317,5.44802484 L22.4108571,5.96203727 L22.3724224,6.52081988 L22.3225839,7.11381366 L22.2621863,7.73130435 L22.193764,8.36315528 L22.1190062,8.99922981 L22.0396025,9.6293913 L21.9576646,10.2443478 L21.8753043,10.833118 L21.7937888,11.3864099 L21.7152298,11.8936646 L21.6417391,12.3447453 L21.5644472,12.8101863 L21.4656149,13.3271553 L21.3490435,13.887205 L21.2185342,14.4814658 L21.0770435,15.1010683 L20.9283727,15.7362981 L20.776323,16.3795528 Z M19.2744099,36.1823354 L19.3766211,35.2425839 L19.4872795,34.3978634 L19.6038509,33.6439503 L19.7242236,32.9770435 L19.8462857,32.3920745 L19.9675031,31.886087 L20.085764,31.4548571 L20.1989565,31.0937391 L20.3053913,30.7989317 L20.3391801,30.6878509 L20.3898634,30.5657888 L20.4578634,30.4808944 L20.5824596,30.4403478 L20.7492919,30.4530186 L20.839677,30.6080248 L20.8802236,31.8535652 L20.9173913,32.8900373 L20.9507578,33.738559 L20.9815901,34.4215155 L21.0090435,34.9600248 L21.0339627,35.3760497 L21.0563478,35.6915528 L21.0766211,35.9276522 L21.0943602,36.1058882 L20.7704099,36.1029317 L20.4722236,36.1003975 L20.2162733,36.1058882 L19.9214658,36.1257391 L19.5696398,36.1540373 L19.2744099,36.1823354 Z M18.8288199,38.6387826 L19.9501863,38.629913 L20.5795031,38.6045714 L20.928795,38.6387826 L21.0424099,38.6675031 L21.1589814,38.7245217 L21.2472547,38.8803727 L21.2278261,39.8344845 L21.216,40.7142609 L21.2096646,41.522236 L21.2075528,42.2617888 L21.2079752,42.9354534 L21.2088199,43.5466087 L21.2088199,44.0982112 L21.2058634,44.5932174 L21.1991056,45.0345839 L21.1860124,45.4252671 L21.1653168,45.7690683 L21.1353292,46.0680994 L21.0943602,46.3257391 L21.0512795,46.4532919 L20.9887702,46.6006957 L20.928795,46.7202236 L20.8890932,46.7996273 L20.8329193,46.8908571 L20.776323,46.9618137 L20.2390807,47.3364472 L19.5527453,47.7026335 L18.9563727,47.992795 L18.3452174,48.2880248 L17.6158012,48.6056398 L16.9708571,48.781764 L16.8403478,48.7792298 L16.6899876,48.7505093 L16.5763727,48.7053168 L16.5113292,48.62 L16.4547329,48.4979379 L16.4234783,48.3872795 L16.5535652,47.6878509 L16.6768944,46.9858882 L16.7943106,46.2856149 L16.9070807,45.5908323 L17.0160497,44.9061863 L17.1220621,44.2354783 L17.2259627,43.5829317 L17.3290186,42.9527702 L17.4316522,42.348795 L17.5355528,41.7760745 L17.6411429,41.2371429 L17.7496894,40.737913 L17.8616149,40.2813416 L17.9781863,39.8720745 L18.1006708,39.513913 L18.2294907,39.2115031 L18.3654907,38.968646 L18.5103602,38.7895652 L18.6645217,38.6780621 L18.8288199,38.6387826 Z M23.2450186,38.4858882 L23.9816149,38.4787081 L24.3414658,38.4972919 L24.4162236,38.6003478 L24.3680745,38.7806957 L24.3114783,39.0011677 L24.2633292,39.1984099 L23.9765466,40.2644472 L23.8118261,40.9199503 L23.6268323,41.1712547 L23.5985342,41.1568944 L23.5706584,41.0834037 L23.5508075,40.9423354 L23.4574658,40.0422857 L23.3641242,39.1819379 L23.2450186,38.4858882 Z M26.7958012,36.1058882 L26.8870311,35.8309317 L27.0061366,35.5074037 L27.1142609,35.240472 L27.2595528,34.7378634 L27.4525714,34.1647205 L27.7503354,33.8914534 L27.7845466,33.9227081 L27.8098882,33.9877516 L27.8267826,34.0439255 L27.8778882,34.3906832 L27.8947826,34.8050186 L27.9032298,35.151354 L27.9285714,35.4727702 L27.9543354,35.8566957 L27.979677,36.2714534 L27.7325963,36.2883478 L27.4377888,36.2883478 L27.1907081,36.2714534 L27.0770932,36.2313292 L26.9436273,36.171354 L26.7958012,36.1058882 Z M26.6433292,38.561913 L28.0176894,38.587677 L28.0109317,39.8746087 L27.9851677,40.8033789 L27.9509565,41.4415652 L27.9188571,41.8571677 L27.8994286,42.117764 L27.9032298,42.2909317 L27.5002981,42.4725466 L27.1227081,42.6398012 L26.7958012,42.7618634 L26.4748075,42.8501366 L26.0946832,42.9409441 L25.7652422,43.0038758 L25.9156025,42.2993789 L26.0516025,41.6464099 L26.1597267,41.0948075 L26.2729193,40.5254658 L26.4063851,39.8332174 L26.5373168,39.1384348 L26.6433292,38.561913 Z M47.8589068,39.5168696 L48.0261615,39.3834037 L48.1879255,39.2727453 L48.3298385,39.1984099 L48.4489441,39.1587081 L48.5967702,39.1278758 L48.724323,39.1219627 L49.1931429,39.2613416 L49.7151801,39.5134907 L50.1497888,39.7457888 L50.6722484,40.0131429 L51.2770683,40.3484969 L51.7403975,40.700323 L51.8421863,40.8392795 L51.9359503,41.0149814 L51.9697391,41.1712547 L51.941441,41.2565714 L51.879354,41.3444224 L51.8168447,41.4132671 L51.4118012,41.7562236 L50.885118,42.1245217 L50.3077516,42.4877516 L49.7506584,42.8163478 L49.2843727,43.080323 L48.7568447,43.3531677 L48.1085217,43.6623354 L47.453441,43.9571429 L46.904795,44.1873292 L46.6800994,44.2895404 L46.4161242,44.4031553 L46.1918509,44.4293416 L46.1259627,44.3693665 L46.0664099,44.272646 L46.0262857,44.1873292 L46.046559,43.9347578 L46.120472,43.6424845 L46.1918509,43.3983602 L46.3878261,42.6849938 L46.6488447,41.8588571 L46.904795,41.1712547 L47.1742609,40.6348571 L47.5294658,40.0190559 L47.8589068,39.5168696 Z M63.2201491,32.7840248 L63.5221366,32.5479255 L63.7535901,32.6002981 L63.8946584,33.0513789 L63.7903354,34.2394783 L63.7231801,35.0825093 L63.6729193,35.6446708 L63.6180124,35.9897391 L63.5381863,36.1823354 L63.4845466,36.2157019 L63.3460124,36.2207702 L63.0803478,36.1692422 L62.4784845,35.966087 L62.0911801,35.8554286 L61.8711304,35.7878509 L61.7630062,35.7536398 L61.6354534,35.7029565 L61.5530932,35.6349565 L61.5674534,35.4841739 L61.644323,35.3021366 L61.7186584,35.151354 L61.9285714,34.8189565 L62.2039503,34.444323 L62.4311801,34.1203727 L62.6867081,33.7089938 L62.9815155,33.2127205 L63.2201491,32.7840248 Z M60.2931925,38.320323 L60.4832547,38.1957267 L60.7218882,38.1648944 L60.9292671,38.1674286 L61.4289193,38.2189565 L62.0164224,38.3494658 L62.507205,38.4858882 L62.8256646,38.5821863 L63.1863602,38.7160745 L63.4621615,38.8803727 L63.6180124,39.084795 L63.7599255,39.3542609 L63.856646,39.5928944 L63.9187329,40.0080745 L63.9385839,40.5102609 L63.9330932,40.9423354 L63.9102857,41.3655404 L63.8621366,41.8677267 L63.7801988,42.2909317 L63.6547578,42.5523727 L63.4727205,42.844646 L63.2965963,43.080323 L62.7821615,43.6108075 L62.1266584,44.1869068 L61.5530932,44.6582609 L60.9820621,45.1211677 L60.2868571,45.6377143 L59.6566957,46.0072795 L59.3158509,46.1437019 L58.898559,46.2573168 L58.5492671,46.2492919 L58.3507578,46.0925963 L58.1750559,45.8455155 L58.0787578,45.612795 L58.0876273,45.041764 L58.2434783,44.3638758 L58.3963727,43.7928447 L58.531528,43.1381863 L58.7101863,42.353441 L58.9103851,41.5754534 L59.1093168,40.9423354 L59.3407702,40.3303354 L59.6533168,39.6072547 L59.9899379,38.8964224 L60.2931925,38.320323 Z M30.7541615,9.50690683 L30.2684472,9.63488199 L29.7295155,9.90477019 L29.3286957,10.2194286 L29.1078012,10.6054658 L28.9346335,11.1106087 L28.857764,11.5557764 L28.9232298,12.1175155 L29.1018882,12.7671056 L29.3286957,13.2866087 L29.626882,13.6958758 L30.0357267,14.1245714 L30.4361242,14.4067081 L30.8310311,14.4801988 L31.3133665,14.4772422 L31.7086957,14.4067081 L32.1086708,14.1731429 L32.5259627,13.8128696 L32.8157019,13.4521739 L33.0028075,12.9491429 L33.1164224,12.3215155 L33.1337391,11.785118 L33.0399752,11.2630807 L32.8414658,10.6734658 L32.5867826,10.2194286 L32.2679006,9.96390062 L31.8446957,9.73667081 L31.4666832,9.58335404 L31.2707081,9.54365217 L31.0265839,9.52084472 L30.7541615,9.50690683 Z" id="Fill-2"></path>
                    </g>
                </g>
            </g>
        </g>
    </g>
</svg>