<?xml version="1.0" encoding="UTF-8"?>
<svg width="198px" height="68px" viewBox="0 0 198 68" version="1.1" xmlns="http://www.w3.org/2000/svg" xmlns:xlink="http://www.w3.org/1999/xlink">
    <!-- Generator: Sketch 52.2 (67145) - http://www.bohemiancoding.com/sketch -->
    <title>supreme-ny</title>
    <desc>Created with Sketch.</desc>
    <g id="Page-1" stroke="none" stroke-width="1" fill="none" fill-rule="evenodd">
        <g id="Artboard" transform="translate(-475.000000, -837.000000)">
            <g id="Brands" transform="translate(50.000000, 750.000000)">
                <g id="Brand-logos" transform="translate(0.000000, 87.000000)">
                    <g id="supreme-ny" transform="translate(425.091687, 0.000000)">
                        <polygon id="Fill-1" fill="#747474" points="0 67.9726174 197.10051 67.9726174 197.10051 0.000456375839 0 0.000456375839"></polygon>
                        <path d="M29.5142819,16.5842416 C28.3651275,14.5994631 26.6934228,13.3457987 24.1340671,13.3457987 C21.6787651,13.3457987 19.0148993,15.2265235 18.5968591,17.7858792 C17.5522148,24.4197584 33.6408322,21.6513826 31.5515436,34.8666577 C30.2978792,42.7542013 24.4996242,48.3434362 16.4555436,48.3434362 C11.0228456,48.3434362 7.5233557,45.2095034 5.53812081,40.6649128 L11.284349,35.8067919 C11.8589262,38.8366711 14.1572349,41.5530201 17.4477047,41.5530201 C20.582094,41.5530201 22.9849128,38.888698 23.4549799,35.8592752 C24.0820403,31.7847517 20.5296107,30.6355973 17.604698,29.4344161 C12.9035705,27.3451275 9.56061745,24.7853154 10.5527785,18.6739866 C11.5978792,12.1446174 17.2911678,6.86891275 23.925047,6.86891275 C27.4249933,6.86891275 31.9691275,8.5926443 33.953906,11.2565101 L29.5142819,16.5842416" id="Fill-3" fill="#FFFFFE"></path>
                        <path d="M42.6652081,21.6513826 L40.4714094,35.545745 C40.0008859,38.4711141 39.8963758,41.970604 43.6053423,41.970604 C47.3138523,41.970604 48.3584966,38.4711141 48.8290201,35.545745 L51.0228188,21.6513826 L58.3357852,21.6513826 L55.9329664,36.7473826 C54.7313289,44.2168859 50.2392215,48.1344161 42.6127248,48.1344161 C34.9866846,48.1344161 31.7477852,44.2168859 32.9494228,36.7473826 L35.3522416,21.6513826 L42.6652081,21.6513826" id="Fill-4" fill="#FFFFFE"></path>
                        <path d="M77.6605638,34.4486174 C78.1831141,31.0011544 76.5114094,27.2926443 72.7504161,27.2926443 C68.9894228,27.2926443 66.0645101,31.0011544 65.5419597,34.4486174 C65.0198658,37.8960805 66.6911141,41.6570738 70.4525638,41.6570738 C74.2131007,41.6570738 77.1380134,37.8960805 77.6605638,34.4486174 Z M67.9447785,24.0017181 C69.9300134,22.0169396 72.8028993,20.815302 75.5192483,20.815302 C82.7797315,20.815302 86.1747114,27.6061745 85.0780403,34.3445638 C83.9813691,41.344 78.6011544,48.1344161 71.0266846,48.1344161 C68.415302,48.1344161 65.8554899,46.9852617 64.7063356,44.8959732 L64.6018255,44.8959732 L62.094953,60.9841342 L54.7819866,60.9841342 L60.9978255,21.6513826 L68.3107919,21.6513826 L67.9447785,24.0017181 Z" id="Fill-5" fill="#FFFFFE"></path>
                        <path d="M95.7216376,24.3152483 L95.8261477,24.3152483 C97.6543893,22.0689664 100.004725,20.815302 102.721074,20.815302 C103.765718,20.815302 104.810362,21.0768054 105.645987,21.4423624 L103.713691,28.2327785 C102.930094,27.6061745 101.937477,27.2926443 100.840805,27.2926443 C95.7736644,27.2926443 94.52,31.7847517 93.893396,35.7547651 L92.0651544,47.2987919 L84.7521879,47.2987919 L88.8267114,21.6513826 L96.1392215,21.6513826 L95.7216376,24.3152483" id="Fill-6" fill="#FFFFFE"></path>
                        <path d="M120.897611,31.1056644 C120.949638,28.4942819 119.695973,25.9344698 116.87557,25.9344698 C113.950658,25.9344698 111.913396,28.4417987 111.129799,31.1056644 L120.897611,31.1056644 Z M110.189208,35.650255 C109.719141,38.888698 110.346201,42.5456376 114.159678,42.5456376 C116.56204,42.5456376 118.338255,41.082953 119.643946,39.0456913 L126.225799,40.1423624 C123.613503,45.2615302 118.651329,48.1344161 113.271114,48.1344161 C105.331544,48.1344161 101.414013,42.492698 102.615651,34.7101208 C103.869315,26.9270872 108.935544,20.815302 117.241128,20.815302 C125.650765,20.815302 128.419597,27.0315973 127.21796,34.7621477 L127.061423,35.650255 L110.189208,35.650255 Z" id="Fill-7" fill="#FFFFFE"></path>
                        <path d="M137.611007,23.9496913 L137.715517,23.9496913 C139.439248,21.9124295 142.103114,20.815302 144.453906,20.815302 C147.640322,20.815302 149.938631,22.1214497 151.192295,24.8373423 C153.17753,22.3304698 156.311463,20.815302 159.288403,20.815302 C165.818228,20.815302 166.653852,25.7254497 165.765745,31.3146846 L163.258872,47.2987919 L155.94545,47.2987919 L158.087221,33.8220134 C158.452779,31.3146846 159.393369,26.6660403 155.788913,26.6660403 C151.818899,26.6660403 150.983275,32.0457987 150.565235,34.7101208 L148.580456,47.2987919 L141.26749,47.2987919 L143.304752,34.2920805 C143.722792,31.7847517 144.87149,26.6660403 141.05847,26.6660403 C136.984403,26.6660403 136.305315,31.9937718 135.887275,34.7101208 L133.902497,47.2987919 L126.58953,47.2987919 L130.664054,21.6513826 L137.976564,21.6513826 L137.611007,23.9496913" id="Fill-8" fill="#FFFFFE"></path>
                        <path d="M185.299087,31.1056644 C185.35157,28.4942819 184.097906,25.9344698 181.277047,25.9344698 C178.352134,25.9344698 176.314872,28.4417987 175.531275,31.1056644 L185.299087,31.1056644 Z M174.591141,35.650255 C174.120617,38.888698 174.747678,42.5456376 178.561154,42.5456376 C180.963517,42.5456376 182.739732,41.082953 184.045423,39.0456913 L190.627275,40.1423624 C188.015436,45.2615302 183.053262,48.1344161 177.673047,48.1344161 C169.73302,48.1344161 165.81549,42.492698 167.017128,34.7101208 C168.270792,26.9270872 173.337477,20.815302 181.64306,20.815302 C190.052242,20.815302 192.821074,27.0315973 191.619436,34.7621477 L191.462899,35.650255 L174.591141,35.650255 Z" id="Fill-9" fill="#FFFFFE"></path>
                    </g>
                </g>
            </g>
        </g>
    </g>
</svg>