<?xml version="1.0" encoding="UTF-8"?>
<svg width="145px" height="68px" viewBox="0 0 145 68" version="1.1" xmlns="http://www.w3.org/2000/svg" xmlns:xlink="http://www.w3.org/1999/xlink">
    <!-- Generator: Sketch 52.2 (67145) - http://www.bohemiancoding.com/sketch -->
    <title>The_North_Face</title>
    <desc>Created with Sketch.</desc>
    <g id="Page-1" stroke="none" stroke-width="1" fill="none" fill-rule="evenodd">
        <g id="Artboard" transform="translate(-886.000000, -837.000000)" fill="#747474">
            <g id="Brands" transform="translate(50.000000, 750.000000)">
                <g id="Brand-logos" transform="translate(0.000000, 87.000000)">
                    <g id="The_North_Face" transform="translate(836.280774, 0.000000)">
                        <polyline id="Fill-2" points="93.8833623 3.76069565 93.8833623 0 78.8405797 0 78.8405797 20.6483478 93.8833623 20.6483478 93.8833623 17.2424348 83.0270145 17.2424348 83.0270145 11.6368696 92.5351884 11.6368696 92.5351884 7.94713043 83.0270145 7.94713043 83.0270145 3.76069565 93.8833623 3.76069565"></polyline>
                        <polyline id="Fill-3" points="90.3434203 22.6666667 90.3434203 30.6137971 82.1124638 30.6137971 82.1124638 22.6666667 77.8550725 22.6666667 77.8550725 43.244058 82.1124638 43.244058 82.1124638 34.0197101 90.3434203 34.0197101 90.3434203 43.244058 94.5298551 43.244058 94.5298551 22.6666667 90.3434203 22.6666667"></polyline>
                        <polyline id="Fill-4" points="93.8833623 49.0230725 93.8833623 45.3333333 78.8405797 45.3333333 78.8405797 66.2655072 93.8833623 66.2655072 93.8833623 62.5048116 83.0270145 62.5048116 83.0270145 56.9702029 92.5351884 56.9702029 92.5351884 53.5642899 83.0270145 53.5642899 83.0270145 49.0230725 93.8833623 49.0230725"></polyline>
                        <polyline id="Fill-5" points="76.7197681 0 72.5333333 0 72.5333333 7.94713043 64.3023768 7.94713043 64.3023768 0 60.115942 0 60.115942 20.6483478 64.3023768 20.6483478 64.3023768 11.424 72.5333333 11.424 72.5333333 20.6483478 76.7197681 20.6483478 76.7197681 0"></polyline>
                        <polyline id="Fill-6" points="42.3768116 0 42.3768116 3.76069565 48.7628986 3.76069565 48.7628986 20.6483478 52.9493333 20.6483478 52.9493333 3.76069565 59.3354203 3.76069565 59.3354203 0 42.3768116 0"></polyline>
                        <path d="M28.8004638,22.6666667 C22.2015072,22.6666667 18.7246377,26.4273623 18.7246377,33.5230145 C18.7246377,40.9734493 22.2015072,44.6631884 28.8004638,44.6631884 C35.3994203,44.6631884 38.8053333,40.9734493 38.8053333,33.5230145 C38.8053333,26.4273623 35.3994203,22.6666667 28.8004638,22.6666667 Z M23.2658551,33.5230145 C23.2658551,28.7689275 25.1107246,26.4273623 28.8004638,26.4273623 C32.774029,26.4273623 34.6188986,28.7689275 34.6188986,33.5230145 C34.6188986,38.5609275 32.774029,40.9734493 28.8004638,40.9734493 C25.1107246,40.9734493 23.2658551,38.5609275 23.2658551,33.5230145 Z" id="Fill-7"></path>
                        <polyline id="Fill-8" points="12.7012174 22.6666667 12.7012174 37.2127536 4.47026087 22.6666667 0 22.6666667 0 43.244058 3.97356522 43.244058 3.97356522 28.7689275 12.4173913 43.244058 16.8876522 43.244058 16.8876522 22.6666667 12.7012174 22.6666667"></polyline>
                        <polyline id="Fill-9" points="31.7806377 53.8481159 31.7806377 49.0230725 42.3531594 49.0230725 42.3531594 45.3333333 27.5942029 45.3333333 27.5942029 66.2655072 31.7806377 66.2655072 31.7806377 57.5378551 41.075942 57.5378551 41.075942 53.8481159 31.7806377 53.8481159"></polyline>
                        <polyline id="Fill-10" points="76.018087 26.3564058 76.018087 22.6666667 59.1304348 22.6666667 59.1304348 26.3564058 65.4455652 26.3564058 65.4455652 43.244058 69.7029565 43.244058 69.7029565 26.3564058 76.018087 26.3564058"></polyline>
                        <path d="M50.1189565,35.3678841 C51.4671304,35.3678841 52.5314783,35.5807536 53.0281739,36.1484058 L53.8086957,43.244058 L58.5627826,43.244058 L58.5627826,42.7473623 C58.066087,42.4635362 57.7822609,41.1863188 57.7822609,38.7737971 C57.7822609,35.8645797 56.717913,34.3035362 55.1568696,33.5230145 C57.2855652,32.6715362 58.349913,31.1104928 58.349913,28.4851014 C58.349913,24.7953623 56.2212174,22.6666667 51.7509565,22.6666667 L41.3913043,22.6666667 L41.3913043,43.244058 L45.6486957,43.244058 L45.6486957,35.3678841 L50.1189565,35.3678841 Z M45.6486957,31.8910145 L45.6486957,26.3564058 L50.8994783,26.3564058 C53.0281739,26.3564058 54.0925217,27.1369275 54.0925217,28.9817971 C54.0925217,30.8266667 53.0281739,31.8910145 50.6866087,31.8910145 L45.6486957,31.8910145 Z" id="Fill-11"></path>
                        <path d="M52.8231884,45.3333333 L47.7852754,45.3333333 L40.4057971,66.2655072 L44.876058,66.2655072 L46.508058,61.7242899 L54.1713623,61.7242899 L55.4485797,66.2655072 L59.9897971,66.2655072 L52.8231884,45.3333333 Z M50.1977971,50.0874203 L52.8231884,58.3183768 L47.5724058,58.3183768 L50.1977971,50.0874203 Z" id="Fill-12"></path>
                        <path d="M73.3926957,52.7128116 L77.5791304,52.7128116 C77.3662609,50.867942 76.7986087,49.3068986 75.5213913,47.9587246 C73.6765217,46.3976812 71.5478261,45.3333333 68.6386087,45.3333333 C65.7293913,45.3333333 63.6006957,46.3976812 61.7558261,48.2425507 C60.1947826,50.0874203 59.1304348,52.7128116 59.1304348,56.1896812 C59.1304348,63.5691594 62.2525217,67.2588986 68.3547826,67.2588986 C73.6765217,67.2588986 76.5857391,64.6335072 77.5791304,59.5955942 L73.3926957,59.5955942 C72.8250435,62.0081159 70.9801739,63.2853333 68.6386087,63.2853333 C65.1617391,63.2853333 63.6006957,60.9437681 63.6006957,56.4025507 C63.6006957,51.4355942 65.1617391,49.0230725 68.6386087,49.0230725 C70.9801739,49.0230725 72.3283478,50.3712464 73.3926957,52.7128116" id="Fill-13"></path>
                        <path d="M20.7193043,66.4231884 C21.4288696,66.4231884 21.9965217,66.1393623 22.4222609,65.7845797 C22.7770435,65.3588406 23.0608696,64.7911884 23.0608696,64.0106667 C23.0608696,63.1591884 22.7770435,62.5915362 22.4222609,62.2367536 C21.9965217,61.881971 21.4288696,61.6691014 20.7193043,61.6691014 L20.6483478,61.6691014 C19.7968696,61.6691014 19.2292174,61.881971 18.8744348,62.2367536 C18.5196522,62.5915362 18.3067826,63.1591884 18.3067826,64.0106667 L18.3067826,64.0816232 C18.3067826,64.7911884 18.5196522,65.3588406 18.8744348,65.7845797 C19.2292174,66.1393623 19.7968696,66.4231884 20.6483478,66.4231884 L20.7193043,66.4231884 Z M20.6483478,66.9908406 C19.6549565,66.9908406 18.9453913,66.636058 18.4486957,66.1393623 C17.952,65.6426667 17.7391304,64.9331014 17.7391304,64.0816232 L17.7391304,64.0106667 C17.7391304,63.0172754 17.952,62.3077101 18.4486957,61.8110145 C18.9453913,61.3143188 19.6549565,61.1014493 20.6483478,61.1014493 L20.7193043,61.1014493 C21.5707826,61.1014493 22.2803478,61.3143188 22.7770435,61.8110145 C23.2737391,62.3077101 23.6285217,63.0172754 23.6285217,64.0106667 C23.6285217,64.9331014 23.2737391,65.6426667 22.7770435,66.1393623 C22.2803478,66.636058 21.5707826,66.9908406 20.7193043,66.9908406 L20.6483478,66.9908406 Z M20.9321739,63.7268406 C20.9321739,63.7268406 20.9321739,63.7268406 21.0031304,63.7268406 C21.2869565,63.7268406 21.4288696,63.5849275 21.4288696,63.2301449 L21.4288696,63.1591884 C21.4288696,63.1591884 21.357913,63.1591884 21.357913,63.0882319 C21.2869565,63.0172754 21.1450435,63.0172754 20.9321739,63.0172754 L20.1516522,63.0172754 L20.1516522,63.7268406 L20.9321739,63.7268406 Z M21.4288696,64.2235362 L21.9965217,64.9331014 C22.0674783,65.0750145 21.9965217,65.2169275 21.9255652,65.2878841 C21.7836522,65.4297971 21.5707826,65.3588406 21.4998261,65.2878841 L20.7902609,64.2944928 L20.1516522,64.2944928 L20.1516522,65.0750145 C20.1516522,65.2169275 20.0097391,65.3588406 19.8678261,65.3588406 C19.725913,65.3588406 19.584,65.2169275 19.584,65.0750145 L19.584,62.7334493 C19.584,62.5915362 19.725913,62.4496232 19.8678261,62.4496232 L20.9321739,62.4496232 C20.9321739,62.4496232 20.9321739,62.4496232 21.0031304,62.4496232 C21.2869565,62.4496232 21.5707826,62.5205797 21.7126957,62.6624928 C21.7836522,62.7334493 21.8546087,62.7334493 21.8546087,62.8044058 C21.9965217,62.9463188 21.9965217,63.0882319 21.9965217,63.2301449 C21.9965217,63.7977971 21.8546087,64.0816232 21.4288696,64.2235362 Z" id="Fill-14"></path>
                        <path d="M96.5797101,0 C109.777623,0 121.201623,4.82504348 130.425971,14.0493913 C139.934145,23.5575652 144.688232,34.9106087 144.688232,48.1794783 L144.688232,66.4153043 L125.388058,66.4153043 L125.388058,47.6118261 C125.388058,40.2323478 122.762667,33.8462609 117.440928,28.5954783 C116.16371,27.2473043 114.815536,26.1829565 113.254493,25.1186087 C108.997101,22.2093913 103.959188,20.9321739 98.7084058,20.9321739 L96.5797101,20.9321739 L96.5797101,0 Z M123.543188,66.4153043 L108.500406,66.4153043 L108.500406,51.8692174 C108.500406,49.4566957 107.719884,47.6118261 106.087884,46.0507826 C104.526841,44.4187826 102.398145,43.6382609 100.269449,43.6382609 L96.5797101,43.6382609 L96.5797101,22.7770435 L98.7084058,22.7770435 C104.243014,22.7770435 108.997101,24.338087 113.254493,27.5311304 C114.318841,28.0278261 115.383188,29.0921739 116.16371,29.8726957 C121.201623,34.9106087 123.543188,40.7290435 123.543188,47.6118261 L123.543188,66.4153043 Z M106.655536,66.4153043 L96.5797101,66.4153043 L96.5797101,45.4831304 L100.269449,45.4831304 C101.901449,45.4831304 103.462493,46.0507826 104.810667,47.328 C105.875014,48.3923478 106.655536,50.0243478 106.655536,51.8692174 L106.655536,66.4153043 Z" id="Fill-15"></path>
                    </g>
                </g>
            </g>
        </g>
    </g>
</svg>