<?xml version="1.0" encoding="UTF-8"?>
<svg width="231px" height="68px" viewBox="0 0 231 68" version="1.1" xmlns="http://www.w3.org/2000/svg" xmlns:xlink="http://www.w3.org/1999/xlink">
    <!-- Generator: Sketch 52.2 (67145) - http://www.bohemiancoding.com/sketch -->
    <title>thrasher</title>
    <desc>Created with Sketch.</desc>
    <g id="Page-1" stroke="none" stroke-width="1" fill="none" fill-rule="evenodd">
        <g id="Artboard" transform="translate(-50.000000, -837.000000)" fill="#747474">
            <g id="Brands" transform="translate(50.000000, 750.000000)">
                <g id="Brand-logos" transform="translate(0.000000, 87.000000)">
                    <g id="thrasher">
                        <polyline id="Fill-26" points="0.261618321 13.0274469 15.1351533 13.6265583 8.66908245 17.2175206 5.43473703 63.898796 19.6624509 55.5198838 26.7756529 14.8223104 33.8888549 14.2244343 39.0632836 1.65668372 4.14178485 1.05757235 0.261618321 13.0274469"></polyline>
                        <polyline id="Fill-27" points="38.9296654 7.57862165 36.5127487 47.9229046 46.9113854 45.5524001 48.4008349 28.1448178 53.4940447 27.8594679 52.7997543 43.6858902 60.7749243 41.4030906 66.8532406 1.79256465 55.2769301 1.18851216 53.8241601 23.4482788 49.4697801 23.9856261 51.5434816 7.57862165 38.9296654 7.57862165"></polyline>
                        <path d="M68.6466059,7.96649993 L77.6776214,8.00849949 L76.1357726,24.6909717 C78.5356596,21.3853593 82.0346214,18.4688604 81.6521066,15.3164229 C81.1608634,11.2634654 77.1719684,8.21602673 74.5009152,4.5904765 L82.4092762,0.383108836 C91.0486071,7.36121216 97.9404221,12.8952718 85.3121962,27.1294167 L91.0040677,36.8276092 L80.6342507,37.6787179 L75.1925856,28.8822807 L73.5328385,39.55511 L66.457626,39.9788114 L68.6466059,7.96649993" id="Fill-28"></path>
                        <path d="M131.137985,1.87779905 L146.484423,1.8481523 L141.573301,11.2696418 L137.053863,11.2745829 L136.828546,7.77997248 C133.858817,9.68230548 134.247882,11.8366358 135.557864,14.4826081 C142.732635,21.6892384 143.918168,27.6704699 136.161765,36.6806107 C132.860611,36.5052008 129.559456,36.3310261 126.256992,36.1568515 C127.895779,33.1575888 134.788904,30.0249158 130.849789,22.0808226 C130.236717,20.9542461 129.110133,19.8029641 127.270918,18.6208 C124.274989,15.9105931 123.752306,8.01838174 131.137985,1.87779905" id="Fill-29"></path>
                        <polyline id="Fill-30" points="174.438128 0.142229008 172.443025 9.52789533 177.761552 8.90160778 173.772657 12.6556273 170.449233 43.9403581 189.064076 50.1970573 191.72334 38.3087113 183.080079 35.1809794 183.74555 28.9242803 193.052971 28.9242803 194.382603 19.5386139 183.74555 18.2872741 185.739342 10.1529476 194.382603 10.1529476 195.046764 1.39356883 174.438128 0.142229008"></polyline>
                        <path d="M197.867155,11.2276422 L210.669609,11.3042297 L207.384174,37.6058363 C210.250414,32.7054759 217.730411,28.6092836 217.274538,23.9337443 C216.687666,17.9216309 211.750344,14.4640789 208.560538,9.08689996 L218.321213,3.99507097 C228.605881,15.5202443 239.819327,21.7720023 217.85617,42.973133 L222.89436,67.7071678 L210.414162,59.7618394 L206.254969,45.4795185 L204.362045,56.7329299 L195.773804,53.6558445 L197.867155,11.2276422" id="Fill-31"></path>
                        <polyline id="Fill-32" points="109.117188 1.55415538 112.965915 24.2956817 105.695515 24.2956817 110.205783 7.99120556 99.7088978 7.9949114 93.2926062 36.571906 102.488679 36.1692043 104.840097 28.1188769 113.179442 28.1188769 114.248387 35.9678535 122.375515 35.5651518 120.664679 2.15820788 109.117188 1.55415538"></polyline>
                        <polyline id="Fill-33" points="146.565642 8.20985032 143.922098 38.0628903 152.092456 38.5742967 152.953114 28.5215786 157.201385 28.5907543 156.801841 39.3636414 164.177039 41.1609755 170.391594 1.77156487 159.78467 1.9531512 157.62058 23.5829245 154.138648 24.0140376 155.797085 8.20985032 146.565642 8.20985032"></polyline>
                    </g>
                </g>
            </g>
        </g>
    </g>
</svg>